<?xml version="1.0" encoding="UTF-8" standalone="no"?>
<!DOCTYPE svg PUBLIC "-//W3C//DTD SVG 1.1//EN"
 "http://www.w3.org/Graphics/SVG/1.1/DTD/svg11.dtd">
<!-- Generated by graphviz version 14.1.3 (20260303.0454)
 -->
<!-- Title: taskflow Pages: 1 -->
<svg width="1758pt" height="782pt"
 viewBox="0.00 0.00 1758.00 782.00" xmlns="http://www.w3.org/2000/svg" xmlns:xlink="http://www.w3.org/1999/xlink">
<g id="graph0" class="graph" transform="scale(1 1) rotate(0) translate(4 778.32)">
<title>taskflow</title>
<polygon fill="white" stroke="none" points="-4,4 -4,-778.32 1753.69,-778.32 1753.69,4 -4,4"/>
<!-- T0 -->
<g id="node1" class="node">
<title>T0</title>
<ellipse fill="none" stroke="black" cx="77.6" cy="-295.66" rx="77.6" ry="40.66"/>
<text xml:space="preserve" text-anchor="middle" x="77.6" y="-307.11" font-family="Times,serif" font-size="14.00">0: spmv_Ap@p0</text>
<text xml:space="preserve" text-anchor="middle" x="77.6" y="-290.61" font-family="Times,serif" font-size="14.00">compute/spmv</text>
<text xml:space="preserve" text-anchor="middle" x="77.6" y="-274.11" font-family="Times,serif" font-size="14.00">@dev 0</text>
</g>
<!-- T4 -->
<g id="node5" class="node">
<title>T4</title>
<ellipse fill="none" stroke="black" cx="284.82" cy="-344.66" rx="73.36" ry="40.66"/>
<text xml:space="preserve" text-anchor="middle" x="284.82" y="-356.11" font-family="Times,serif" font-size="14.00">4: dot_pAp@p0</text>
<text xml:space="preserve" text-anchor="middle" x="284.82" y="-339.61" font-family="Times,serif" font-size="14.00">compute/dot</text>
<text xml:space="preserve" text-anchor="middle" x="284.82" y="-323.11" font-family="Times,serif" font-size="14.00">@dev 0</text>
</g>
<!-- T0&#45;&gt;T4 -->
<g id="edge1" class="edge">
<title>T0&#45;&gt;T4</title>
<path fill="none" stroke="black" d="M148.66,-312.38C167.01,-316.77 186.92,-321.52 205.67,-326"/>
<polygon fill="black" stroke="black" points="204.85,-329.4 215.39,-328.32 206.47,-322.59 204.85,-329.4"/>
<text xml:space="preserve" text-anchor="middle" x="183.33" y="-324.83" font-family="Times,serif" font-size="14.00">p2p</text>
</g>
<!-- T13 -->
<g id="node14" class="node">
<title>T13</title>
<ellipse fill="none" stroke="black" cx="834.01" cy="-139.66" rx="101.47" ry="40.66"/>
<text xml:space="preserve" text-anchor="middle" x="834.01" y="-151.11" font-family="Times,serif" font-size="14.00">13: axpy_r_update@p0</text>
<text xml:space="preserve" text-anchor="middle" x="834.01" y="-134.61" font-family="Times,serif" font-size="14.00">compute/axpy</text>
<text xml:space="preserve" text-anchor="middle" x="834.01" y="-118.11" font-family="Times,serif" font-size="14.00">@dev 0</text>
</g>
<!-- T0&#45;&gt;T13 -->
<g id="edge2" class="edge">
<title>T0&#45;&gt;T13</title>
<path fill="none" stroke="black" d="M100.39,-256.31C116.82,-230.81 141.86,-199.5 173.21,-183.66 266.08,-136.72 558.25,-134.19 720.91,-136.72"/>
<polygon fill="black" stroke="black" points="720.83,-140.22 730.88,-136.88 720.94,-133.22 720.83,-140.22"/>
<text xml:space="preserve" text-anchor="middle" x="410.68" y="-147.6" font-family="Times,serif" font-size="14.00">p2p</text>
</g>
<!-- T1 -->
<g id="node2" class="node">
<title>T1</title>
<ellipse fill="none" stroke="black" cx="77.6" cy="-551.66" rx="77.6" ry="40.66"/>
<text xml:space="preserve" text-anchor="middle" x="77.6" y="-563.11" font-family="Times,serif" font-size="14.00">1: spmv_Ap@p1</text>
<text xml:space="preserve" text-anchor="middle" x="77.6" y="-546.61" font-family="Times,serif" font-size="14.00">compute/spmv</text>
<text xml:space="preserve" text-anchor="middle" x="77.6" y="-530.11" font-family="Times,serif" font-size="14.00">@dev 1</text>
</g>
<!-- T5 -->
<g id="node6" class="node">
<title>T5</title>
<ellipse fill="none" stroke="black" cx="284.82" cy="-474.66" rx="73.36" ry="40.66"/>
<text xml:space="preserve" text-anchor="middle" x="284.82" y="-486.11" font-family="Times,serif" font-size="14.00">5: dot_pAp@p1</text>
<text xml:space="preserve" text-anchor="middle" x="284.82" y="-469.61" font-family="Times,serif" font-size="14.00">compute/dot</text>
<text xml:space="preserve" text-anchor="middle" x="284.82" y="-453.11" font-family="Times,serif" font-size="14.00">@dev 1</text>
</g>
<!-- T1&#45;&gt;T5 -->
<g id="edge3" class="edge">
<title>T1&#45;&gt;T5</title>
<path fill="none" stroke="black" d="M141.29,-528.14C163.88,-519.66 189.53,-510.04 212.78,-501.31"/>
<polygon fill="black" stroke="black" points="213.73,-504.7 221.86,-497.91 211.27,-498.14 213.73,-504.7"/>
<text xml:space="preserve" text-anchor="middle" x="183.33" y="-518.67" font-family="Times,serif" font-size="14.00">p2p</text>
</g>
<!-- T14 -->
<g id="node15" class="node">
<title>T14</title>
<ellipse fill="none" stroke="black" cx="834.01" cy="-634.66" rx="101.47" ry="40.66"/>
<text xml:space="preserve" text-anchor="middle" x="834.01" y="-646.11" font-family="Times,serif" font-size="14.00">14: axpy_r_update@p1</text>
<text xml:space="preserve" text-anchor="middle" x="834.01" y="-629.61" font-family="Times,serif" font-size="14.00">compute/axpy</text>
<text xml:space="preserve" text-anchor="middle" x="834.01" y="-613.11" font-family="Times,serif" font-size="14.00">@dev 1</text>
</g>
<!-- T1&#45;&gt;T14 -->
<g id="edge4" class="edge">
<title>T1&#45;&gt;T14</title>
<path fill="none" stroke="black" d="M154.05,-559.96C288.29,-574.73 569.09,-605.62 724.21,-622.69"/>
<polygon fill="black" stroke="black" points="723.79,-626.16 734.11,-623.78 724.56,-619.21 723.79,-626.16"/>
<text xml:space="preserve" text-anchor="middle" x="410.68" y="-594.44" font-family="Times,serif" font-size="14.00">p2p</text>
</g>
<!-- T2 -->
<g id="node3" class="node">
<title>T2</title>
<ellipse fill="none" stroke="black" cx="77.6" cy="-141.66" rx="77.6" ry="40.66"/>
<text xml:space="preserve" text-anchor="middle" x="77.6" y="-153.11" font-family="Times,serif" font-size="14.00">2: spmv_Ap@p2</text>
<text xml:space="preserve" text-anchor="middle" x="77.6" y="-136.61" font-family="Times,serif" font-size="14.00">compute/spmv</text>
<text xml:space="preserve" text-anchor="middle" x="77.6" y="-120.11" font-family="Times,serif" font-size="14.00">@dev 2</text>
</g>
<!-- T6 -->
<g id="node7" class="node">
<title>T6</title>
<ellipse fill="none" stroke="black" cx="284.82" cy="-238.66" rx="73.36" ry="40.66"/>
<text xml:space="preserve" text-anchor="middle" x="284.82" y="-250.11" font-family="Times,serif" font-size="14.00">6: dot_pAp@p2</text>
<text xml:space="preserve" text-anchor="middle" x="284.82" y="-233.61" font-family="Times,serif" font-size="14.00">compute/dot</text>
<text xml:space="preserve" text-anchor="middle" x="284.82" y="-217.11" font-family="Times,serif" font-size="14.00">@dev 2</text>
</g>
<!-- T2&#45;&gt;T6 -->
<g id="edge5" class="edge">
<title>T2&#45;&gt;T6</title>
<path fill="none" stroke="black" d="M136.04,-168.81C161.48,-180.83 191.54,-195.04 217.89,-207.5"/>
<polygon fill="black" stroke="black" points="216.26,-210.6 226.8,-211.71 219.26,-204.27 216.26,-210.6"/>
<text xml:space="preserve" text-anchor="middle" x="183.33" y="-196.27" font-family="Times,serif" font-size="14.00">p2p</text>
</g>
<!-- T15 -->
<g id="node16" class="node">
<title>T15</title>
<ellipse fill="none" stroke="black" cx="834.01" cy="-40.66" rx="101.47" ry="40.66"/>
<text xml:space="preserve" text-anchor="middle" x="834.01" y="-52.11" font-family="Times,serif" font-size="14.00">15: axpy_r_update@p2</text>
<text xml:space="preserve" text-anchor="middle" x="834.01" y="-35.61" font-family="Times,serif" font-size="14.00">compute/axpy</text>
<text xml:space="preserve" text-anchor="middle" x="834.01" y="-19.11" font-family="Times,serif" font-size="14.00">@dev 2</text>
</g>
<!-- T2&#45;&gt;T15 -->
<g id="edge6" class="edge">
<title>T2&#45;&gt;T15</title>
<path fill="none" stroke="black" d="M151.9,-128.97C159.09,-127.81 166.29,-126.69 173.21,-125.66 367.18,-96.77 594.11,-68.81 724.94,-53.25"/>
<polygon fill="black" stroke="black" points="725.11,-56.76 734.63,-52.11 724.29,-49.81 725.11,-56.76"/>
<text xml:space="preserve" text-anchor="middle" x="410.68" y="-99.53" font-family="Times,serif" font-size="14.00">p2p</text>
</g>
<!-- T3 -->
<g id="node4" class="node">
<title>T3</title>
<ellipse fill="none" stroke="black" cx="77.6" cy="-699.66" rx="77.6" ry="40.66"/>
<text xml:space="preserve" text-anchor="middle" x="77.6" y="-711.11" font-family="Times,serif" font-size="14.00">3: spmv_Ap@p3</text>
<text xml:space="preserve" text-anchor="middle" x="77.6" y="-694.61" font-family="Times,serif" font-size="14.00">compute/spmv</text>
<text xml:space="preserve" text-anchor="middle" x="77.6" y="-678.11" font-family="Times,serif" font-size="14.00">@dev 3</text>
</g>
<!-- T7 -->
<g id="node8" class="node">
<title>T7</title>
<ellipse fill="none" stroke="black" cx="284.82" cy="-664.66" rx="73.36" ry="40.66"/>
<text xml:space="preserve" text-anchor="middle" x="284.82" y="-676.11" font-family="Times,serif" font-size="14.00">7: dot_pAp@p3</text>
<text xml:space="preserve" text-anchor="middle" x="284.82" y="-659.61" font-family="Times,serif" font-size="14.00">compute/dot</text>
<text xml:space="preserve" text-anchor="middle" x="284.82" y="-643.11" font-family="Times,serif" font-size="14.00">@dev 3</text>
</g>
<!-- T3&#45;&gt;T7 -->
<g id="edge7" class="edge">
<title>T3&#45;&gt;T7</title>
<path fill="none" stroke="black" d="M151.82,-687.17C168.54,-684.32 186.39,-681.28 203.38,-678.38"/>
<polygon fill="black" stroke="black" points="203.65,-681.88 212.92,-676.75 202.47,-674.98 203.65,-681.88"/>
<text xml:space="preserve" text-anchor="middle" x="183.33" y="-686.41" font-family="Times,serif" font-size="14.00">p2p</text>
</g>
<!-- T16 -->
<g id="node17" class="node">
<title>T16</title>
<ellipse fill="none" stroke="black" cx="834.01" cy="-733.66" rx="101.47" ry="40.66"/>
<text xml:space="preserve" text-anchor="middle" x="834.01" y="-745.11" font-family="Times,serif" font-size="14.00">16: axpy_r_update@p3</text>
<text xml:space="preserve" text-anchor="middle" x="834.01" y="-728.61" font-family="Times,serif" font-size="14.00">compute/axpy</text>
<text xml:space="preserve" text-anchor="middle" x="834.01" y="-712.11" font-family="Times,serif" font-size="14.00">@dev 3</text>
</g>
<!-- T3&#45;&gt;T16 -->
<g id="edge8" class="edge">
<title>T3&#45;&gt;T16</title>
<path fill="none" stroke="black" d="M153.34,-709.18C172.27,-711.3 192.59,-713.31 211.46,-714.66 389.24,-727.39 596.22,-731.6 720.8,-732.99"/>
<polygon fill="black" stroke="black" points="720.67,-736.49 730.71,-733.09 720.75,-729.49 720.67,-736.49"/>
<text xml:space="preserve" text-anchor="middle" x="410.68" y="-729.76" font-family="Times,serif" font-size="14.00">p2p</text>
</g>
<!-- T8 -->
<g id="node9" class="node">
<title>T8</title>
<ellipse fill="none" stroke="black" cx="543.44" cy="-363.66" rx="80.26" ry="40.66"/>
<text xml:space="preserve" text-anchor="middle" x="543.44" y="-375.11" font-family="Times,serif" font-size="14.00">8: compute_alpha</text>
<text xml:space="preserve" text-anchor="middle" x="543.44" y="-358.61" font-family="Times,serif" font-size="14.00">compute/scalar</text>
<text xml:space="preserve" text-anchor="middle" x="543.44" y="-342.11" font-family="Times,serif" font-size="14.00">@dev 0</text>
</g>
<!-- T4&#45;&gt;T8 -->
<g id="edge9" class="edge">
<title>T4&#45;&gt;T8</title>
<path fill="none" stroke="black" d="M357.99,-350C387.3,-352.17 421.48,-354.7 452.4,-356.99"/>
<polygon fill="black" stroke="black" points="451.88,-360.46 462.11,-357.71 452.4,-353.48 451.88,-360.46"/>
<text xml:space="preserve" text-anchor="middle" x="410.68" y="-359.62" font-family="Times,serif" font-size="14.00">allreduce 4B</text>
</g>
<!-- T5&#45;&gt;T8 -->
<g id="edge10" class="edge">
<title>T5&#45;&gt;T8</title>
<path fill="none" stroke="black" d="M343.41,-449.75C381.12,-433.44 430.69,-412 470.92,-394.6"/>
<polygon fill="black" stroke="black" points="472.29,-397.82 480.08,-390.63 469.51,-391.39 472.29,-397.82"/>
<text xml:space="preserve" text-anchor="middle" x="410.68" y="-435.56" font-family="Times,serif" font-size="14.00">allreduce 4B</text>
</g>
<!-- T6&#45;&gt;T8 -->
<g id="edge11" class="edge">
<title>T6&#45;&gt;T8</title>
<path fill="none" stroke="black" d="M340.56,-265.32C379.72,-284.4 432.7,-310.2 474.56,-330.59"/>
<polygon fill="black" stroke="black" points="472.79,-333.62 483.31,-334.86 475.85,-327.33 472.79,-333.62"/>
<text xml:space="preserve" text-anchor="middle" x="410.68" y="-319.23" font-family="Times,serif" font-size="14.00">allreduce 4B</text>
</g>
<!-- T7&#45;&gt;T8 -->
<g id="edge12" class="edge">
<title>T7&#45;&gt;T8</title>
<path fill="none" stroke="black" d="M357.45,-657.17C387.7,-650.72 421.36,-638.77 445.18,-616.66 502.46,-563.5 526.35,-472.85 536.07,-415.72"/>
<polygon fill="black" stroke="black" points="539.52,-416.33 537.64,-405.9 532.61,-415.22 539.52,-416.33"/>
<text xml:space="preserve" text-anchor="middle" x="410.68" y="-655.09" font-family="Times,serif" font-size="14.00">allreduce 4B</text>
</g>
<!-- T9 -->
<g id="node10" class="node">
<title>T9</title>
<ellipse fill="none" stroke="black" cx="834.01" cy="-337.66" rx="98.29" ry="40.66"/>
<text xml:space="preserve" text-anchor="middle" x="834.01" y="-349.11" font-family="Times,serif" font-size="14.00">9: axpy_x_update@p0</text>
<text xml:space="preserve" text-anchor="middle" x="834.01" y="-332.61" font-family="Times,serif" font-size="14.00">compute/axpy</text>
<text xml:space="preserve" text-anchor="middle" x="834.01" y="-316.11" font-family="Times,serif" font-size="14.00">@dev 0</text>
</g>
<!-- T8&#45;&gt;T9 -->
<g id="edge13" class="edge">
<title>T8&#45;&gt;T9</title>
<path fill="none" stroke="black" d="M622.91,-356.59C654.84,-353.71 692.24,-350.34 726.56,-347.25"/>
<polygon fill="black" stroke="black" points="726.43,-350.78 736.08,-346.39 725.81,-343.8 726.43,-350.78"/>
<text xml:space="preserve" text-anchor="middle" x="677.32" y="-357.71" font-family="Times,serif" font-size="14.00">broadcast 4B</text>
</g>
<!-- T10 -->
<g id="node11" class="node">
<title>T10</title>
<ellipse fill="none" stroke="black" cx="834.01" cy="-238.66" rx="103.06" ry="40.66"/>
<text xml:space="preserve" text-anchor="middle" x="834.01" y="-250.11" font-family="Times,serif" font-size="14.00">10: axpy_x_update@p1</text>
<text xml:space="preserve" text-anchor="middle" x="834.01" y="-233.61" font-family="Times,serif" font-size="14.00">compute/axpy</text>
<text xml:space="preserve" text-anchor="middle" x="834.01" y="-217.11" font-family="Times,serif" font-size="14.00">@dev 1</text>
</g>
<!-- T8&#45;&gt;T10 -->
<g id="edge14" class="edge">
<title>T8&#45;&gt;T10</title>
<path fill="none" stroke="black" d="M605.29,-337.3C648.33,-318.66 706.47,-293.47 753.23,-273.22"/>
<polygon fill="black" stroke="black" points="754.46,-276.5 762.24,-269.31 751.68,-270.08 754.46,-276.5"/>
<text xml:space="preserve" text-anchor="middle" x="677.32" y="-322.86" font-family="Times,serif" font-size="14.00">broadcast 4B</text>
</g>
<!-- T11 -->
<g id="node12" class="node">
<title>T11</title>
<ellipse fill="none" stroke="black" cx="834.01" cy="-535.66" rx="103.06" ry="40.66"/>
<text xml:space="preserve" text-anchor="middle" x="834.01" y="-547.11" font-family="Times,serif" font-size="14.00">11: axpy_x_update@p2</text>
<text xml:space="preserve" text-anchor="middle" x="834.01" y="-530.61" font-family="Times,serif" font-size="14.00">compute/axpy</text>
<text xml:space="preserve" text-anchor="middle" x="834.01" y="-514.11" font-family="Times,serif" font-size="14.00">@dev 2</text>
</g>
<!-- T8&#45;&gt;T11 -->
<g id="edge15" class="edge">
<title>T8&#45;&gt;T11</title>
<path fill="none" stroke="black" d="M590.86,-396.81C627.94,-422.67 681.67,-458.75 730.95,-486.66 738.79,-491.1 747.1,-495.52 755.45,-499.79"/>
<polygon fill="black" stroke="black" points="753.78,-502.87 764.29,-504.23 756.92,-496.61 753.78,-502.87"/>
<text xml:space="preserve" text-anchor="middle" x="677.32" y="-477.68" font-family="Times,serif" font-size="14.00">broadcast 4B</text>
</g>
<!-- T12 -->
<g id="node13" class="node">
<title>T12</title>
<ellipse fill="none" stroke="black" cx="834.01" cy="-436.66" rx="103.06" ry="40.66"/>
<text xml:space="preserve" text-anchor="middle" x="834.01" y="-448.11" font-family="Times,serif" font-size="14.00">12: axpy_x_update@p3</text>
<text xml:space="preserve" text-anchor="middle" x="834.01" y="-431.61" font-family="Times,serif" font-size="14.00">compute/axpy</text>
<text xml:space="preserve" text-anchor="middle" x="834.01" y="-415.11" font-family="Times,serif" font-size="14.00">@dev 3</text>
</g>
<!-- T8&#45;&gt;T12 -->
<g id="edge16" class="edge">
<title>T8&#45;&gt;T12</title>
<path fill="none" stroke="black" d="M615.77,-381.7C651.93,-390.85 696.38,-402.09 735.63,-412.02"/>
<polygon fill="black" stroke="black" points="734.53,-415.36 745.09,-414.42 736.25,-408.57 734.53,-415.36"/>
<text xml:space="preserve" text-anchor="middle" x="677.32" y="-407.73" font-family="Times,serif" font-size="14.00">broadcast 4B</text>
</g>
<!-- T8&#45;&gt;T13 -->
<g id="edge17" class="edge">
<title>T8&#45;&gt;T13</title>
<path fill="none" stroke="black" d="M577.41,-326.64C612.68,-288.59 671.61,-229.31 730.95,-188.66 738.07,-183.78 745.76,-179.13 753.61,-174.77"/>
<polygon fill="black" stroke="black" points="755.1,-177.94 762.26,-170.14 751.8,-171.77 755.1,-177.94"/>
<text xml:space="preserve" text-anchor="middle" x="677.32" y="-262.67" font-family="Times,serif" font-size="14.00">broadcast 4B</text>
</g>
<!-- T8&#45;&gt;T14 -->
<g id="edge18" class="edge">
<title>T8&#45;&gt;T14</title>
<path fill="none" stroke="black" d="M565.98,-403.03C583.29,-431.62 609.91,-469.56 641.7,-494.66 668.73,-516 690.03,-499.44 712.95,-525.16 731.61,-546.11 712.74,-564.31 730.95,-585.66 735.92,-591.49 741.74,-596.68 748.04,-601.28"/>
<polygon fill="black" stroke="black" points="746.04,-604.16 756.31,-606.79 749.92,-598.33 746.04,-604.16"/>
<text xml:space="preserve" text-anchor="middle" x="677.32" y="-528.36" font-family="Times,serif" font-size="14.00">broadcast 4B</text>
</g>
<!-- T8&#45;&gt;T15 -->
<g id="edge19" class="edge">
<title>T8&#45;&gt;T15</title>
<path fill="none" stroke="black" d="M560.98,-323.69C587.79,-263.86 646.37,-151.43 730.95,-89.66 737.87,-84.61 745.39,-79.85 753.11,-75.44"/>
<polygon fill="black" stroke="black" points="754.55,-78.65 761.63,-70.77 751.18,-72.51 754.55,-78.65"/>
<text xml:space="preserve" text-anchor="middle" x="677.32" y="-183.11" font-family="Times,serif" font-size="14.00">broadcast 4B</text>
</g>
<!-- T8&#45;&gt;T16 -->
<g id="edge20" class="edge">
<title>T8&#45;&gt;T16</title>
<path fill="none" stroke="black" d="M558.41,-404.06C583.34,-470.76 641.39,-604.48 730.95,-684.66 736.99,-690.07 743.73,-695 750.8,-699.48"/>
<polygon fill="black" stroke="black" points="748.9,-702.43 759.29,-704.53 752.48,-696.41 748.9,-702.43"/>
<text xml:space="preserve" text-anchor="middle" x="677.32" y="-667.03" font-family="Times,serif" font-size="14.00">broadcast 4B</text>
</g>
<!-- T17 -->
<g id="node18" class="node">
<title>T17</title>
<ellipse fill="none" stroke="black" cx="1082.06" cy="-398.66" rx="88.74" ry="40.66"/>
<text xml:space="preserve" text-anchor="middle" x="1082.06" y="-410.11" font-family="Times,serif" font-size="14.00">17: dot_rr_new@p0</text>
<text xml:space="preserve" text-anchor="middle" x="1082.06" y="-393.61" font-family="Times,serif" font-size="14.00">compute/dot</text>
<text xml:space="preserve" text-anchor="middle" x="1082.06" y="-377.11" font-family="Times,serif" font-size="14.00">@dev 0</text>
</g>
<!-- T13&#45;&gt;T17 -->
<g id="edge21" class="edge">
<title>T13&#45;&gt;T17</title>
<path fill="none" stroke="black" d="M909.31,-167.33C919.46,-173.29 929.11,-180.36 937.07,-188.66 980.92,-234.39 956.42,-268.15 993.32,-319.66 1002.73,-332.79 1014.66,-345.32 1026.67,-356.38"/>
<polygon fill="black" stroke="black" points="1024.05,-358.73 1033.84,-362.79 1028.71,-353.51 1024.05,-358.73"/>
<text xml:space="preserve" text-anchor="middle" x="965.19" y="-285.76" font-family="Times,serif" font-size="14.00">p2p</text>
</g>
<!-- T22 -->
<g id="node23" class="node">
<title>T22</title>
<ellipse fill="none" stroke="black" cx="1646.63" cy="-317.66" rx="103.06" ry="40.66"/>
<text xml:space="preserve" text-anchor="middle" x="1646.63" y="-329.11" font-family="Times,serif" font-size="14.00">22: axpy_p_update@p0</text>
<text xml:space="preserve" text-anchor="middle" x="1646.63" y="-312.61" font-family="Times,serif" font-size="14.00">compute/axpy</text>
<text xml:space="preserve" text-anchor="middle" x="1646.63" y="-296.11" font-family="Times,serif" font-size="14.00">@dev 0</text>
</g>
<!-- T13&#45;&gt;T22 -->
<g id="edge22" class="edge">
<title>T13&#45;&gt;T22</title>
<path fill="none" stroke="black" d="M933.34,-148.69C947.46,-150.42 961.79,-152.41 975.32,-154.66 1222.7,-195.84 1283.53,-213.99 1525.57,-279.66 1535.41,-282.33 1545.64,-285.29 1555.81,-288.34"/>
<polygon fill="black" stroke="black" points="1554.76,-291.68 1565.34,-291.24 1556.79,-284.98 1554.76,-291.68"/>
<text xml:space="preserve" text-anchor="middle" x="1223.3" y="-212" font-family="Times,serif" font-size="14.00">p2p</text>
</g>
<!-- T18 -->
<g id="node19" class="node">
<title>T18</title>
<ellipse fill="none" stroke="black" cx="1082.06" cy="-512.66" rx="88.74" ry="40.66"/>
<text xml:space="preserve" text-anchor="middle" x="1082.06" y="-524.11" font-family="Times,serif" font-size="14.00">18: dot_rr_new@p1</text>
<text xml:space="preserve" text-anchor="middle" x="1082.06" y="-507.61" font-family="Times,serif" font-size="14.00">compute/dot</text>
<text xml:space="preserve" text-anchor="middle" x="1082.06" y="-491.11" font-family="Times,serif" font-size="14.00">@dev 1</text>
</g>
<!-- T14&#45;&gt;T18 -->
<g id="edge23" class="edge">
<title>T14&#45;&gt;T18</title>
<path fill="none" stroke="black" d="M907.28,-606.14C917.88,-600.25 928.2,-593.43 937.07,-585.66 948.06,-576.03 943.61,-567.22 955.07,-558.16 966.34,-549.25 979.5,-541.99 992.99,-536.11"/>
<polygon fill="black" stroke="black" points="994.01,-539.47 1001.94,-532.45 991.36,-532.99 994.01,-539.47"/>
<text xml:space="preserve" text-anchor="middle" x="965.19" y="-561.36" font-family="Times,serif" font-size="14.00">p2p</text>
</g>
<!-- T23 -->
<g id="node24" class="node">
<title>T23</title>
<ellipse fill="none" stroke="black" cx="1646.63" cy="-426.66" rx="103.06" ry="40.66"/>
<text xml:space="preserve" text-anchor="middle" x="1646.63" y="-438.11" font-family="Times,serif" font-size="14.00">23: axpy_p_update@p1</text>
<text xml:space="preserve" text-anchor="middle" x="1646.63" y="-421.61" font-family="Times,serif" font-size="14.00">compute/axpy</text>
<text xml:space="preserve" text-anchor="middle" x="1646.63" y="-405.11" font-family="Times,serif" font-size="14.00">@dev 1</text>
</g>
<!-- T14&#45;&gt;T23 -->
<g id="edge24" class="edge">
<title>T14&#45;&gt;T23</title>
<path fill="none" stroke="black" d="M929.6,-620.45C1106.11,-593.52 1472.64,-535.41 1525.57,-509.66 1535.19,-504.98 1535.07,-500.17 1543.57,-493.66 1555.23,-484.72 1568.06,-475.71 1580.57,-467.32"/>
<polygon fill="black" stroke="black" points="1582.39,-470.32 1588.79,-461.88 1578.52,-464.48 1582.39,-470.32"/>
<text xml:space="preserve" text-anchor="middle" x="1223.3" y="-581.86" font-family="Times,serif" font-size="14.00">p2p</text>
</g>
<!-- T19 -->
<g id="node20" class="node">
<title>T19</title>
<ellipse fill="none" stroke="black" cx="1082.06" cy="-269.66" rx="88.74" ry="40.66"/>
<text xml:space="preserve" text-anchor="middle" x="1082.06" y="-281.11" font-family="Times,serif" font-size="14.00">19: dot_rr_new@p2</text>
<text xml:space="preserve" text-anchor="middle" x="1082.06" y="-264.61" font-family="Times,serif" font-size="14.00">compute/dot</text>
<text xml:space="preserve" text-anchor="middle" x="1082.06" y="-248.11" font-family="Times,serif" font-size="14.00">@dev 2</text>
</g>
<!-- T15&#45;&gt;T19 -->
<g id="edge25" class="edge">
<title>T15&#45;&gt;T19</title>
<path fill="none" stroke="black" d="M906.11,-69.65C916.98,-75.51 927.69,-82.2 937.07,-89.66 983.75,-126.79 1024.89,-181.7 1051.11,-221.1"/>
<polygon fill="black" stroke="black" points="1047.88,-222.56 1056.29,-228.99 1053.73,-218.71 1047.88,-222.56"/>
<text xml:space="preserve" text-anchor="middle" x="965.19" y="-126.81" font-family="Times,serif" font-size="14.00">p2p</text>
</g>
<!-- T24 -->
<g id="node25" class="node">
<title>T24</title>
<ellipse fill="none" stroke="black" cx="1646.63" cy="-198.66" rx="103.06" ry="40.66"/>
<text xml:space="preserve" text-anchor="middle" x="1646.63" y="-210.11" font-family="Times,serif" font-size="14.00">24: axpy_p_update@p2</text>
<text xml:space="preserve" text-anchor="middle" x="1646.63" y="-193.61" font-family="Times,serif" font-size="14.00">compute/axpy</text>
<text xml:space="preserve" text-anchor="middle" x="1646.63" y="-177.11" font-family="Times,serif" font-size="14.00">@dev 2</text>
</g>
<!-- T15&#45;&gt;T24 -->
<g id="edge26" class="edge">
<title>T15&#45;&gt;T24</title>
<path fill="none" stroke="black" d="M935.7,-40.29C1072.82,-42.65 1324.26,-57.25 1525.57,-126.66 1546.7,-133.95 1568.14,-145.29 1586.95,-156.83"/>
<polygon fill="black" stroke="black" points="1584.92,-159.69 1595.24,-162.06 1588.65,-153.77 1584.92,-159.69"/>
<text xml:space="preserve" text-anchor="middle" x="1223.3" y="-67.83" font-family="Times,serif" font-size="14.00">p2p</text>
</g>
<!-- T20 -->
<g id="node21" class="node">
<title>T20</title>
<ellipse fill="none" stroke="black" cx="1082.06" cy="-661.66" rx="88.74" ry="40.66"/>
<text xml:space="preserve" text-anchor="middle" x="1082.06" y="-673.11" font-family="Times,serif" font-size="14.00">20: dot_rr_new@p3</text>
<text xml:space="preserve" text-anchor="middle" x="1082.06" y="-656.61" font-family="Times,serif" font-size="14.00">compute/dot</text>
<text xml:space="preserve" text-anchor="middle" x="1082.06" y="-640.11" font-family="Times,serif" font-size="14.00">@dev 3</text>
</g>
<!-- T16&#45;&gt;T20 -->
<g id="edge27" class="edge">
<title>T16&#45;&gt;T20</title>
<path fill="none" stroke="black" d="M916.6,-709.78C942.06,-702.33 970.2,-694.1 995.9,-686.58"/>
<polygon fill="black" stroke="black" points="996.68,-690 1005.29,-683.83 994.71,-683.28 996.68,-690"/>
<text xml:space="preserve" text-anchor="middle" x="965.19" y="-700.86" font-family="Times,serif" font-size="14.00">p2p</text>
</g>
<!-- T25 -->
<g id="node26" class="node">
<title>T25</title>
<ellipse fill="none" stroke="black" cx="1646.63" cy="-543.66" rx="103.06" ry="40.66"/>
<text xml:space="preserve" text-anchor="middle" x="1646.63" y="-555.11" font-family="Times,serif" font-size="14.00">25: axpy_p_update@p3</text>
<text xml:space="preserve" text-anchor="middle" x="1646.63" y="-538.61" font-family="Times,serif" font-size="14.00">compute/axpy</text>
<text xml:space="preserve" text-anchor="middle" x="1646.63" y="-522.11" font-family="Times,serif" font-size="14.00">@dev 3</text>
</g>
<!-- T16&#45;&gt;T25 -->
<g id="edge28" class="edge">
<title>T16&#45;&gt;T25</title>
<path fill="none" stroke="black" d="M935.67,-733.16C1002.77,-731.33 1092.66,-726.02 1170.8,-711.66 1333.03,-681.84 1372.23,-663.45 1525.57,-602.66 1541.42,-596.37 1558.05,-588.84 1573.72,-581.29"/>
<polygon fill="black" stroke="black" points="1575.04,-584.54 1582.49,-577.01 1571.97,-578.25 1575.04,-584.54"/>
<text xml:space="preserve" text-anchor="middle" x="1223.3" y="-711.47" font-family="Times,serif" font-size="14.00">p2p</text>
</g>
<!-- T21 -->
<g id="node22" class="node">
<title>T21</title>
<ellipse fill="none" stroke="black" cx="1356.06" cy="-420.66" rx="80.26" ry="40.66"/>
<text xml:space="preserve" text-anchor="middle" x="1356.06" y="-432.11" font-family="Times,serif" font-size="14.00">21: compute_beta</text>
<text xml:space="preserve" text-anchor="middle" x="1356.06" y="-415.61" font-family="Times,serif" font-size="14.00">compute/scalar</text>
<text xml:space="preserve" text-anchor="middle" x="1356.06" y="-399.11" font-family="Times,serif" font-size="14.00">@dev 0</text>
</g>
<!-- T17&#45;&gt;T21 -->
<g id="edge29" class="edge">
<title>T17&#45;&gt;T21</title>
<path fill="none" stroke="black" d="M1169.87,-405.68C1200.33,-408.14 1234.6,-410.92 1265.3,-413.4"/>
<polygon fill="black" stroke="black" points="1264.68,-416.86 1274.93,-414.18 1265.24,-409.88 1264.68,-416.86"/>
<text xml:space="preserve" text-anchor="middle" x="1223.3" y="-415.48" font-family="Times,serif" font-size="14.00">allreduce 4B</text>
</g>
<!-- T18&#45;&gt;T21 -->
<g id="edge30" class="edge">
<title>T18&#45;&gt;T21</title>
<path fill="none" stroke="black" d="M1154.17,-488.61C1192.15,-475.76 1238.96,-459.93 1277.83,-446.78"/>
<polygon fill="black" stroke="black" points="1278.79,-450.15 1287.14,-443.63 1276.54,-443.52 1278.79,-450.15"/>
<text xml:space="preserve" text-anchor="middle" x="1223.3" y="-478.1" font-family="Times,serif" font-size="14.00">allreduce 4B</text>
</g>
<!-- T19&#45;&gt;T21 -->
<g id="edge31" class="edge">
<title>T19&#45;&gt;T21</title>
<path fill="none" stroke="black" d="M1139.42,-300.95C1183.64,-325.49 1245.19,-359.66 1291.22,-385.22"/>
<polygon fill="black" stroke="black" points="1289.33,-388.17 1299.77,-389.96 1292.72,-382.05 1289.33,-388.17"/>
<text xml:space="preserve" text-anchor="middle" x="1223.3" y="-366.32" font-family="Times,serif" font-size="14.00">allreduce 4B</text>
</g>
<!-- T20&#45;&gt;T21 -->
<g id="edge32" class="edge">
<title>T20&#45;&gt;T21</title>
<path fill="none" stroke="black" d="M1167.92,-650.66C1198.88,-643.2 1232.47,-630.67 1257.8,-609.66 1300.66,-574.12 1326.78,-514.83 1341.01,-472.12"/>
<polygon fill="black" stroke="black" points="1344.27,-473.41 1343.99,-462.81 1337.6,-471.27 1344.27,-473.41"/>
<text xml:space="preserve" text-anchor="middle" x="1223.3" y="-646.9" font-family="Times,serif" font-size="14.00">allreduce 4B</text>
</g>
<!-- T21&#45;&gt;T22 -->
<g id="edge33" class="edge">
<title>T21&#45;&gt;T22</title>
<path fill="none" stroke="black" d="M1422.18,-397.42C1462.49,-383.03 1514.74,-364.38 1558.58,-348.73"/>
<polygon fill="black" stroke="black" points="1559.58,-352.09 1567.82,-345.43 1557.22,-345.5 1559.58,-352.09"/>
<text xml:space="preserve" text-anchor="middle" x="1489.94" y="-387.6" font-family="Times,serif" font-size="14.00">broadcast 4B</text>
</g>
<!-- T21&#45;&gt;T23 -->
<g id="edge34" class="edge">
<title>T21&#45;&gt;T23</title>
<path fill="none" stroke="black" d="M1436.68,-422.31C1466.15,-422.93 1500.16,-423.63 1532.07,-424.3"/>
<polygon fill="black" stroke="black" points="1531.67,-427.79 1541.75,-424.5 1531.82,-420.79 1531.67,-427.79"/>
<text xml:space="preserve" text-anchor="middle" x="1489.94" y="-427.22" font-family="Times,serif" font-size="14.00">broadcast 4B</text>
</g>
<!-- T21&#45;&gt;T24 -->
<g id="edge35" class="edge">
<title>T21&#45;&gt;T24</title>
<path fill="none" stroke="black" d="M1397.67,-385.51C1434.87,-353.75 1491.86,-306.21 1543.57,-267.66 1555.98,-258.4 1569.54,-248.86 1582.61,-239.93"/>
<polygon fill="black" stroke="black" points="1584.44,-242.92 1590.75,-234.4 1580.51,-237.12 1584.44,-242.92"/>
<text xml:space="preserve" text-anchor="middle" x="1489.94" y="-340.37" font-family="Times,serif" font-size="14.00">broadcast 4B</text>
</g>
<!-- T21&#45;&gt;T25 -->
<g id="edge36" class="edge">
<title>T21&#45;&gt;T25</title>
<path fill="none" stroke="black" d="M1418.26,-446.74C1461.09,-465 1518.75,-489.58 1565.28,-509.41"/>
<polygon fill="black" stroke="black" points="1563.68,-512.53 1574.25,-513.23 1566.42,-506.09 1563.68,-512.53"/>
<text xml:space="preserve" text-anchor="middle" x="1489.94" y="-492.72" font-family="Times,serif" font-size="14.00">broadcast 4B</text>
</g>
</g>
</svg>
