<?xml version="1.0" encoding="UTF-8" standalone="no"?>
<!DOCTYPE svg PUBLIC "-//W3C//DTD SVG 1.1//EN"
 "http://www.w3.org/Graphics/SVG/1.1/DTD/svg11.dtd">
<!-- Generated by graphviz version 14.1.3 (20260303.0454)
 -->
<!-- Title: taskflow Pages: 1 -->
<svg width="1647pt" height="782pt"
 viewBox="0.00 0.00 1647.00 782.00" xmlns="http://www.w3.org/2000/svg" xmlns:xlink="http://www.w3.org/1999/xlink">
<g id="graph0" class="graph" transform="scale(1 1) rotate(0) translate(4 778.32)">
<title>taskflow</title>
<polygon fill="white" stroke="none" points="-4,4 -4,-778.32 1642.96,-778.32 1642.96,4 -4,4"/>
<!-- T0 -->
<g id="node1" class="node">
<title>T0</title>
<ellipse fill="none" stroke="black" cx="72.83" cy="-708.66" rx="72.83" ry="40.66"/>
<text xml:space="preserve" text-anchor="middle" x="72.83" y="-720.11" font-family="Times,serif" font-size="14.00">0: spmv_Ap@0</text>
<text xml:space="preserve" text-anchor="middle" x="72.83" y="-703.61" font-family="Times,serif" font-size="14.00">compute/spmv</text>
<text xml:space="preserve" text-anchor="middle" x="72.83" y="-687.11" font-family="Times,serif" font-size="14.00">@dev 0</text>
</g>
<!-- T4 -->
<g id="node5" class="node">
<title>T4</title>
<ellipse fill="none" stroke="black" cx="270.5" cy="-664.66" rx="68.59" ry="40.66"/>
<text xml:space="preserve" text-anchor="middle" x="270.5" y="-676.11" font-family="Times,serif" font-size="14.00">4: dot_pAp@0</text>
<text xml:space="preserve" text-anchor="middle" x="270.5" y="-659.61" font-family="Times,serif" font-size="14.00">compute/dot</text>
<text xml:space="preserve" text-anchor="middle" x="270.5" y="-643.11" font-family="Times,serif" font-size="14.00">@dev 0</text>
</g>
<!-- T0&#45;&gt;T4 -->
<g id="edge1" class="edge">
<title>T0&#45;&gt;T4</title>
<path fill="none" stroke="black" d="M140.9,-693.58C158.22,-689.68 176.98,-685.46 194.67,-681.49"/>
<polygon fill="black" stroke="black" points="195.36,-684.92 204.35,-679.31 193.82,-678.09 195.36,-684.92"/>
<text xml:space="preserve" text-anchor="middle" x="173.79" y="-691.18" font-family="Times,serif" font-size="14.00">p2p</text>
</g>
<!-- T16 -->
<g id="node17" class="node">
<title>T16</title>
<ellipse fill="none" stroke="black" cx="778.64" cy="-733.66" rx="96.7" ry="40.66"/>
<text xml:space="preserve" text-anchor="middle" x="778.64" y="-745.11" font-family="Times,serif" font-size="14.00">16: axpy_r_update@0</text>
<text xml:space="preserve" text-anchor="middle" x="778.64" y="-728.61" font-family="Times,serif" font-size="14.00">compute/axpy</text>
<text xml:space="preserve" text-anchor="middle" x="778.64" y="-712.11" font-family="Times,serif" font-size="14.00">@dev 0</text>
</g>
<!-- T0&#45;&gt;T16 -->
<g id="edge2" class="edge">
<title>T0&#45;&gt;T16</title>
<path fill="none" stroke="black" d="M145.63,-712.2C163.98,-713.05 183.67,-713.93 201.91,-714.66 365.35,-721.18 554.95,-727.13 670.57,-730.57"/>
<polygon fill="black" stroke="black" points="670.26,-734.06 680.36,-730.86 670.47,-727.06 670.26,-734.06"/>
<text xml:space="preserve" text-anchor="middle" x="391.59" y="-725.86" font-family="Times,serif" font-size="14.00">p2p</text>
</g>
<!-- T1 -->
<g id="node2" class="node">
<title>T1</title>
<ellipse fill="none" stroke="black" cx="72.83" cy="-561.66" rx="72.83" ry="40.66"/>
<text xml:space="preserve" text-anchor="middle" x="72.83" y="-573.11" font-family="Times,serif" font-size="14.00">1: spmv_Ap@1</text>
<text xml:space="preserve" text-anchor="middle" x="72.83" y="-556.61" font-family="Times,serif" font-size="14.00">compute/spmv</text>
<text xml:space="preserve" text-anchor="middle" x="72.83" y="-540.11" font-family="Times,serif" font-size="14.00">@dev 1</text>
</g>
<!-- T5 -->
<g id="node6" class="node">
<title>T5</title>
<ellipse fill="none" stroke="black" cx="270.5" cy="-511.66" rx="68.59" ry="40.66"/>
<text xml:space="preserve" text-anchor="middle" x="270.5" y="-523.11" font-family="Times,serif" font-size="14.00">5: dot_pAp@1</text>
<text xml:space="preserve" text-anchor="middle" x="270.5" y="-506.61" font-family="Times,serif" font-size="14.00">compute/dot</text>
<text xml:space="preserve" text-anchor="middle" x="270.5" y="-490.11" font-family="Times,serif" font-size="14.00">@dev 1</text>
</g>
<!-- T1&#45;&gt;T5 -->
<g id="edge3" class="edge">
<title>T1&#45;&gt;T5</title>
<path fill="none" stroke="black" d="M139.53,-544.87C157.64,-540.24 177.4,-535.2 195.92,-530.46"/>
<polygon fill="black" stroke="black" points="196.67,-533.88 205.49,-528.02 194.94,-527.1 196.67,-533.88"/>
<text xml:space="preserve" text-anchor="middle" x="173.79" y="-541.36" font-family="Times,serif" font-size="14.00">p2p</text>
</g>
<!-- T15 -->
<g id="node16" class="node">
<title>T15</title>
<ellipse fill="none" stroke="black" cx="778.64" cy="-634.66" rx="96.7" ry="40.66"/>
<text xml:space="preserve" text-anchor="middle" x="778.64" y="-646.11" font-family="Times,serif" font-size="14.00">15: axpy_r_update@1</text>
<text xml:space="preserve" text-anchor="middle" x="778.64" y="-629.61" font-family="Times,serif" font-size="14.00">compute/axpy</text>
<text xml:space="preserve" text-anchor="middle" x="778.64" y="-613.11" font-family="Times,serif" font-size="14.00">@dev 1</text>
</g>
<!-- T1&#45;&gt;T15 -->
<g id="edge4" class="edge">
<title>T1&#45;&gt;T15</title>
<path fill="none" stroke="black" d="M145.04,-568.39C216.21,-575.18 328.76,-586.06 426.09,-596.16 509.42,-604.8 603.8,-615.17 673.77,-622.97"/>
<polygon fill="black" stroke="black" points="672.95,-626.4 683.28,-624.03 673.73,-619.44 672.95,-626.4"/>
<text xml:space="preserve" text-anchor="middle" x="391.59" y="-599.36" font-family="Times,serif" font-size="14.00">p2p</text>
</g>
<!-- T2 -->
<g id="node3" class="node">
<title>T2</title>
<ellipse fill="none" stroke="black" cx="72.83" cy="-112.66" rx="72.83" ry="40.66"/>
<text xml:space="preserve" text-anchor="middle" x="72.83" y="-124.11" font-family="Times,serif" font-size="14.00">2: spmv_Ap@2</text>
<text xml:space="preserve" text-anchor="middle" x="72.83" y="-107.61" font-family="Times,serif" font-size="14.00">compute/spmv</text>
<text xml:space="preserve" text-anchor="middle" x="72.83" y="-91.11" font-family="Times,serif" font-size="14.00">@dev 2</text>
</g>
<!-- T6 -->
<g id="node7" class="node">
<title>T6</title>
<ellipse fill="none" stroke="black" cx="270.5" cy="-223.66" rx="68.59" ry="40.66"/>
<text xml:space="preserve" text-anchor="middle" x="270.5" y="-235.11" font-family="Times,serif" font-size="14.00">6: dot_pAp@2</text>
<text xml:space="preserve" text-anchor="middle" x="270.5" y="-218.61" font-family="Times,serif" font-size="14.00">compute/dot</text>
<text xml:space="preserve" text-anchor="middle" x="270.5" y="-202.11" font-family="Times,serif" font-size="14.00">@dev 2</text>
</g>
<!-- T2&#45;&gt;T6 -->
<g id="edge5" class="edge">
<title>T2&#45;&gt;T6</title>
<path fill="none" stroke="black" d="M124.73,-141.53C150.95,-156.41 183.07,-174.63 210.38,-190.12"/>
<polygon fill="black" stroke="black" points="208.47,-193.06 218.89,-194.95 211.92,-186.97 208.47,-193.06"/>
<text xml:space="preserve" text-anchor="middle" x="173.79" y="-178" font-family="Times,serif" font-size="14.00">p2p</text>
</g>
<!-- T14 -->
<g id="node15" class="node">
<title>T14</title>
<ellipse fill="none" stroke="black" cx="778.64" cy="-40.66" rx="96.7" ry="40.66"/>
<text xml:space="preserve" text-anchor="middle" x="778.64" y="-52.11" font-family="Times,serif" font-size="14.00">14: axpy_r_update@2</text>
<text xml:space="preserve" text-anchor="middle" x="778.64" y="-35.61" font-family="Times,serif" font-size="14.00">compute/axpy</text>
<text xml:space="preserve" text-anchor="middle" x="778.64" y="-19.11" font-family="Times,serif" font-size="14.00">@dev 2</text>
</g>
<!-- T2&#45;&gt;T14 -->
<g id="edge6" class="edge">
<title>T2&#45;&gt;T14</title>
<path fill="none" stroke="black" d="M144.86,-105.39C269.54,-92.64 528.23,-66.17 673.27,-51.34"/>
<polygon fill="black" stroke="black" points="673.28,-54.85 682.87,-50.35 672.56,-47.89 673.28,-54.85"/>
<text xml:space="preserve" text-anchor="middle" x="391.59" y="-86.47" font-family="Times,serif" font-size="14.00">p2p</text>
</g>
<!-- T3 -->
<g id="node4" class="node">
<title>T3</title>
<ellipse fill="none" stroke="black" cx="72.83" cy="-311.66" rx="72.83" ry="40.66"/>
<text xml:space="preserve" text-anchor="middle" x="72.83" y="-323.11" font-family="Times,serif" font-size="14.00">3: spmv_Ap@3</text>
<text xml:space="preserve" text-anchor="middle" x="72.83" y="-306.61" font-family="Times,serif" font-size="14.00">compute/spmv</text>
<text xml:space="preserve" text-anchor="middle" x="72.83" y="-290.11" font-family="Times,serif" font-size="14.00">@dev 3</text>
</g>
<!-- T7 -->
<g id="node8" class="node">
<title>T7</title>
<ellipse fill="none" stroke="black" cx="270.5" cy="-382.66" rx="68.59" ry="40.66"/>
<text xml:space="preserve" text-anchor="middle" x="270.5" y="-394.11" font-family="Times,serif" font-size="14.00">7: dot_pAp@3</text>
<text xml:space="preserve" text-anchor="middle" x="270.5" y="-377.61" font-family="Times,serif" font-size="14.00">compute/dot</text>
<text xml:space="preserve" text-anchor="middle" x="270.5" y="-361.11" font-family="Times,serif" font-size="14.00">@dev 3</text>
</g>
<!-- T3&#45;&gt;T7 -->
<g id="edge7" class="edge">
<title>T3&#45;&gt;T7</title>
<path fill="none" stroke="black" d="M134.67,-333.73C155.59,-341.33 179.16,-349.88 200.67,-357.68"/>
<polygon fill="black" stroke="black" points="199.36,-360.93 209.96,-361.05 201.75,-354.35 199.36,-360.93"/>
<text xml:space="preserve" text-anchor="middle" x="173.79" y="-354.61" font-family="Times,serif" font-size="14.00">p2p</text>
</g>
<!-- T13 -->
<g id="node14" class="node">
<title>T13</title>
<ellipse fill="none" stroke="black" cx="778.64" cy="-139.66" rx="96.7" ry="40.66"/>
<text xml:space="preserve" text-anchor="middle" x="778.64" y="-151.11" font-family="Times,serif" font-size="14.00">13: axpy_r_update@3</text>
<text xml:space="preserve" text-anchor="middle" x="778.64" y="-134.61" font-family="Times,serif" font-size="14.00">compute/axpy</text>
<text xml:space="preserve" text-anchor="middle" x="778.64" y="-118.11" font-family="Times,serif" font-size="14.00">@dev 3</text>
</g>
<!-- T3&#45;&gt;T13 -->
<g id="edge8" class="edge">
<title>T3&#45;&gt;T13</title>
<path fill="none" stroke="black" d="M85.62,-271.28C98.46,-235.33 122.84,-184.81 163.66,-160.66 246.78,-111.49 519.55,-121.38 672.05,-131.37"/>
<polygon fill="black" stroke="black" points="671.55,-134.85 681.76,-132.02 672.02,-127.86 671.55,-134.85"/>
<text xml:space="preserve" text-anchor="middle" x="391.59" y="-128.09" font-family="Times,serif" font-size="14.00">p2p</text>
</g>
<!-- T8 -->
<g id="node9" class="node">
<title>T8</title>
<ellipse fill="none" stroke="black" cx="524.35" cy="-422.66" rx="80.26" ry="40.66"/>
<text xml:space="preserve" text-anchor="middle" x="524.35" y="-434.11" font-family="Times,serif" font-size="14.00">8: compute_alpha</text>
<text xml:space="preserve" text-anchor="middle" x="524.35" y="-417.61" font-family="Times,serif" font-size="14.00">compute/scalar</text>
<text xml:space="preserve" text-anchor="middle" x="524.35" y="-401.11" font-family="Times,serif" font-size="14.00">@dev 0</text>
</g>
<!-- T4&#45;&gt;T8 -->
<g id="edge9" class="edge">
<title>T4&#45;&gt;T8</title>
<path fill="none" stroke="black" d="M337.72,-656.13C367.46,-649.48 401.34,-637.66 426.09,-616.66 469.92,-579.47 496.06,-517.7 510.02,-473.86"/>
<polygon fill="black" stroke="black" points="513.28,-475.16 512.86,-464.57 506.59,-473.11 513.28,-475.16"/>
<text xml:space="preserve" text-anchor="middle" x="391.59" y="-653.41" font-family="Times,serif" font-size="14.00">allreduce</text>
</g>
<!-- T5&#45;&gt;T8 -->
<g id="edge10" class="edge">
<title>T5&#45;&gt;T8</title>
<path fill="none" stroke="black" d="M329.91,-491.02C364.85,-478.67 409.62,-462.85 447.29,-449.54"/>
<polygon fill="black" stroke="black" points="448.02,-452.99 456.29,-446.36 445.69,-446.39 448.02,-452.99"/>
<text xml:space="preserve" text-anchor="middle" x="391.59" y="-483.53" font-family="Times,serif" font-size="14.00">allreduce 4B</text>
</g>
<!-- T6&#45;&gt;T8 -->
<g id="edge11" class="edge">
<title>T6&#45;&gt;T8</title>
<path fill="none" stroke="black" d="M312.53,-256.07C355.87,-290.32 424.33,-344.42 471.41,-381.62"/>
<polygon fill="black" stroke="black" points="469.03,-384.2 479.05,-387.65 473.37,-378.71 469.03,-384.2"/>
<text xml:space="preserve" text-anchor="middle" x="391.59" y="-344.18" font-family="Times,serif" font-size="14.00">allreduce 4B</text>
</g>
<!-- T7&#45;&gt;T8 -->
<g id="edge12" class="edge">
<title>T7&#45;&gt;T8</title>
<path fill="none" stroke="black" d="M337.02,-393.06C367.26,-397.87 403.6,-403.64 436.13,-408.81"/>
<polygon fill="black" stroke="black" points="435.54,-412.26 445.96,-410.37 436.63,-405.34 435.54,-412.26"/>
<text xml:space="preserve" text-anchor="middle" x="391.59" y="-409.44" font-family="Times,serif" font-size="14.00">allreduce 4B</text>
</g>
<!-- T9 -->
<g id="node10" class="node">
<title>T9</title>
<ellipse fill="none" stroke="black" cx="778.64" cy="-535.66" rx="93.51" ry="40.66"/>
<text xml:space="preserve" text-anchor="middle" x="778.64" y="-547.11" font-family="Times,serif" font-size="14.00">9: axpy_x_update@3</text>
<text xml:space="preserve" text-anchor="middle" x="778.64" y="-530.61" font-family="Times,serif" font-size="14.00">compute/axpy</text>
<text xml:space="preserve" text-anchor="middle" x="778.64" y="-514.11" font-family="Times,serif" font-size="14.00">@dev 3</text>
</g>
<!-- T8&#45;&gt;T9 -->
<g id="edge13" class="edge">
<title>T8&#45;&gt;T9</title>
<path fill="none" stroke="black" d="M585.14,-449.44C620.17,-465.13 664.74,-485.09 702.18,-501.86"/>
<polygon fill="black" stroke="black" points="700.59,-504.98 711.15,-505.88 703.45,-498.59 700.59,-504.98"/>
<text xml:space="preserve" text-anchor="middle" x="642.48" y="-485.75" font-family="Times,serif" font-size="14.00">p2p 4B</text>
</g>
<!-- T10 -->
<g id="node11" class="node">
<title>T10</title>
<ellipse fill="none" stroke="black" cx="778.64" cy="-436.66" rx="98.29" ry="40.66"/>
<text xml:space="preserve" text-anchor="middle" x="778.64" y="-448.11" font-family="Times,serif" font-size="14.00">10: axpy_x_update@2</text>
<text xml:space="preserve" text-anchor="middle" x="778.64" y="-431.61" font-family="Times,serif" font-size="14.00">compute/axpy</text>
<text xml:space="preserve" text-anchor="middle" x="778.64" y="-415.11" font-family="Times,serif" font-size="14.00">@dev 2</text>
</g>
<!-- T8&#45;&gt;T10 -->
<g id="edge14" class="edge">
<title>T8&#45;&gt;T10</title>
<path fill="none" stroke="black" d="M604.48,-427.05C625.16,-428.2 647.8,-429.45 669.69,-430.67"/>
<polygon fill="black" stroke="black" points="669.37,-434.16 679.55,-431.22 669.76,-427.17 669.37,-434.16"/>
<text xml:space="preserve" text-anchor="middle" x="642.48" y="-433.28" font-family="Times,serif" font-size="14.00">p2p 4B</text>
</g>
<!-- T11 -->
<g id="node12" class="node">
<title>T11</title>
<ellipse fill="none" stroke="black" cx="778.64" cy="-337.66" rx="98.29" ry="40.66"/>
<text xml:space="preserve" text-anchor="middle" x="778.64" y="-349.11" font-family="Times,serif" font-size="14.00">11: axpy_x_update@1</text>
<text xml:space="preserve" text-anchor="middle" x="778.64" y="-332.61" font-family="Times,serif" font-size="14.00">compute/axpy</text>
<text xml:space="preserve" text-anchor="middle" x="778.64" y="-316.11" font-family="Times,serif" font-size="14.00">@dev 1</text>
</g>
<!-- T8&#45;&gt;T11 -->
<g id="edge15" class="edge">
<title>T8&#45;&gt;T11</title>
<path fill="none" stroke="black" d="M591.97,-400.21C622.27,-390.01 658.51,-377.8 690.9,-366.88"/>
<polygon fill="black" stroke="black" points="691.93,-370.23 700.29,-363.72 689.69,-363.6 691.93,-370.23"/>
<text xml:space="preserve" text-anchor="middle" x="642.48" y="-390.97" font-family="Times,serif" font-size="14.00">p2p 4B</text>
</g>
<!-- T12 -->
<g id="node13" class="node">
<title>T12</title>
<ellipse fill="none" stroke="black" cx="778.64" cy="-238.66" rx="98.29" ry="40.66"/>
<text xml:space="preserve" text-anchor="middle" x="778.64" y="-250.11" font-family="Times,serif" font-size="14.00">12: axpy_x_update@0</text>
<text xml:space="preserve" text-anchor="middle" x="778.64" y="-233.61" font-family="Times,serif" font-size="14.00">compute/axpy</text>
<text xml:space="preserve" text-anchor="middle" x="778.64" y="-217.11" font-family="Times,serif" font-size="14.00">@dev 0</text>
</g>
<!-- T8&#45;&gt;T12 -->
<g id="edge16" class="edge">
<title>T8&#45;&gt;T12</title>
<path fill="none" stroke="black" d="M561.73,-386.28C591.86,-357.36 636.66,-317.01 680.36,-287.66 687.23,-283.04 694.6,-278.57 702.1,-274.32"/>
<polygon fill="black" stroke="black" points="703.59,-277.5 710.67,-269.62 700.22,-271.36 703.59,-277.5"/>
<text xml:space="preserve" text-anchor="middle" x="642.48" y="-331.64" font-family="Times,serif" font-size="14.00">p2p</text>
</g>
<!-- T8&#45;&gt;T13 -->
<g id="edge17" class="edge">
<title>T8&#45;&gt;T13</title>
<path fill="none" stroke="black" d="M543.57,-382.91C568.41,-332.32 617.14,-244.8 680.36,-188.66 686.29,-183.39 692.88,-178.54 699.77,-174.1"/>
<polygon fill="black" stroke="black" points="701.29,-177.27 708.02,-169.09 697.65,-171.29 701.29,-177.27"/>
<text xml:space="preserve" text-anchor="middle" x="642.48" y="-254.11" font-family="Times,serif" font-size="14.00">p2p 4B</text>
</g>
<!-- T8&#45;&gt;T14 -->
<g id="edge18" class="edge">
<title>T8&#45;&gt;T14</title>
<path fill="none" stroke="black" d="M533.88,-382.06C550.41,-312.93 593.11,-171.88 680.36,-89.66 686.08,-84.26 692.51,-79.33 699.27,-74.85"/>
<polygon fill="black" stroke="black" points="700.73,-78.06 707.37,-69.81 697.03,-72.12 700.73,-78.06"/>
<text xml:space="preserve" text-anchor="middle" x="642.48" y="-161.99" font-family="Times,serif" font-size="14.00">p2p 4B</text>
</g>
<!-- T8&#45;&gt;T15 -->
<g id="edge19" class="edge">
<title>T8&#45;&gt;T15</title>
<path fill="none" stroke="black" d="M565.95,-457.88C583,-472.08 603.32,-488.24 622.61,-501.66 639.45,-513.38 649.72,-508.98 662.36,-525.16 679.62,-547.27 662.35,-564.14 680.36,-585.66 685.17,-591.41 690.82,-596.55 696.94,-601.14"/>
<polygon fill="black" stroke="black" points="694.72,-603.86 704.95,-606.62 698.67,-598.08 694.72,-603.86"/>
<text xml:space="preserve" text-anchor="middle" x="642.48" y="-528.36" font-family="Times,serif" font-size="14.00">p2p 4B</text>
</g>
<!-- T8&#45;&gt;T16 -->
<g id="edge20" class="edge">
<title>T8&#45;&gt;T16</title>
<path fill="none" stroke="black" d="M540.61,-462.92C563.53,-518.85 611.62,-620.43 680.36,-684.66 686.1,-690.03 692.55,-694.95 699.32,-699.42"/>
<polygon fill="black" stroke="black" points="697.08,-702.15 707.43,-704.45 700.77,-696.2 697.08,-702.15"/>
<text xml:space="preserve" text-anchor="middle" x="642.48" y="-664.33" font-family="Times,serif" font-size="14.00">p2p</text>
</g>
<!-- T17 -->
<g id="node18" class="node">
<title>T17</title>
<ellipse fill="none" stroke="black" cx="1017.15" cy="-327.66" rx="83.97" ry="40.66"/>
<text xml:space="preserve" text-anchor="middle" x="1017.15" y="-339.11" font-family="Times,serif" font-size="14.00">17: dot_rr_new@3</text>
<text xml:space="preserve" text-anchor="middle" x="1017.15" y="-322.61" font-family="Times,serif" font-size="14.00">compute/dot</text>
<text xml:space="preserve" text-anchor="middle" x="1017.15" y="-306.11" font-family="Times,serif" font-size="14.00">@dev 3</text>
</g>
<!-- T13&#45;&gt;T17 -->
<g id="edge21" class="edge">
<title>T13&#45;&gt;T17</title>
<path fill="none" stroke="black" d="M847.72,-168.61C858.04,-174.47 868.16,-181.17 876.93,-188.66 909.45,-216.4 903.1,-236.3 933.18,-266.66 940.56,-274.1 948.91,-281.34 957.4,-288.07"/>
<polygon fill="black" stroke="black" points="955.01,-290.64 965.07,-293.97 959.27,-285.09 955.01,-290.64"/>
<text xml:space="preserve" text-anchor="middle" x="905.06" y="-246.41" font-family="Times,serif" font-size="14.00">p2p</text>
</g>
<!-- T22 -->
<g id="node23" class="node">
<title>T22</title>
<ellipse fill="none" stroke="black" cx="1540.67" cy="-149.66" rx="98.29" ry="40.66"/>
<text xml:space="preserve" text-anchor="middle" x="1540.67" y="-161.11" font-family="Times,serif" font-size="14.00">22: axpy_p_update@3</text>
<text xml:space="preserve" text-anchor="middle" x="1540.67" y="-144.61" font-family="Times,serif" font-size="14.00">compute/axpy</text>
<text xml:space="preserve" text-anchor="middle" x="1540.67" y="-128.11" font-family="Times,serif" font-size="14.00">@dev 3</text>
</g>
<!-- T13&#45;&gt;T22 -->
<g id="edge22" class="edge">
<title>T13&#45;&gt;T22</title>
<path fill="none" stroke="black" d="M875.8,-140.59C958.57,-141.43 1081.22,-142.73 1188.12,-144.16 1269.5,-145.24 1361.47,-146.69 1430.92,-147.83"/>
<polygon fill="black" stroke="black" points="1430.74,-151.32 1440.79,-147.99 1430.85,-144.33 1430.74,-151.32"/>
<text xml:space="preserve" text-anchor="middle" x="1153.62" y="-147.36" font-family="Times,serif" font-size="14.00">p2p</text>
</g>
<!-- T18 -->
<g id="node19" class="node">
<title>T18</title>
<ellipse fill="none" stroke="black" cx="1017.15" cy="-216.66" rx="83.97" ry="40.66"/>
<text xml:space="preserve" text-anchor="middle" x="1017.15" y="-228.11" font-family="Times,serif" font-size="14.00">18: dot_rr_new@2</text>
<text xml:space="preserve" text-anchor="middle" x="1017.15" y="-211.61" font-family="Times,serif" font-size="14.00">compute/dot</text>
<text xml:space="preserve" text-anchor="middle" x="1017.15" y="-195.11" font-family="Times,serif" font-size="14.00">@dev 2</text>
</g>
<!-- T14&#45;&gt;T18 -->
<g id="edge23" class="edge">
<title>T14&#45;&gt;T18</title>
<path fill="none" stroke="black" d="M848.43,-69.23C858.6,-75.13 868.49,-81.94 876.93,-89.66 888.12,-99.9 884.89,-107.29 894.93,-118.66 913.66,-139.87 937.31,-160.11 958.74,-176.62"/>
<polygon fill="black" stroke="black" points="956.48,-179.3 966.56,-182.55 960.71,-173.72 956.48,-179.3"/>
<text xml:space="preserve" text-anchor="middle" x="905.06" y="-140.23" font-family="Times,serif" font-size="14.00">p2p</text>
</g>
<!-- T23 -->
<g id="node24" class="node">
<title>T23</title>
<ellipse fill="none" stroke="black" cx="1540.67" cy="-251.66" rx="98.29" ry="40.66"/>
<text xml:space="preserve" text-anchor="middle" x="1540.67" y="-263.11" font-family="Times,serif" font-size="14.00">23: axpy_p_update@2</text>
<text xml:space="preserve" text-anchor="middle" x="1540.67" y="-246.61" font-family="Times,serif" font-size="14.00">compute/axpy</text>
<text xml:space="preserve" text-anchor="middle" x="1540.67" y="-230.11" font-family="Times,serif" font-size="14.00">@dev 2</text>
</g>
<!-- T14&#45;&gt;T23 -->
<g id="edge24" class="edge">
<title>T14&#45;&gt;T23</title>
<path fill="none" stroke="black" d="M848.76,-69.1C916.59,-96.05 1023.49,-135.97 1119.12,-160.66 1252.31,-195.04 1291.1,-177.66 1424.38,-211.66 1434.85,-214.33 1445.73,-217.52 1456.43,-220.93"/>
<polygon fill="black" stroke="black" points="1455.02,-224.15 1465.61,-223.92 1457.19,-217.49 1455.02,-224.15"/>
<text xml:space="preserve" text-anchor="middle" x="1153.62" y="-178.69" font-family="Times,serif" font-size="14.00">p2p</text>
</g>
<!-- T19 -->
<g id="node20" class="node">
<title>T19</title>
<ellipse fill="none" stroke="black" cx="1017.15" cy="-477.66" rx="83.97" ry="40.66"/>
<text xml:space="preserve" text-anchor="middle" x="1017.15" y="-489.11" font-family="Times,serif" font-size="14.00">19: dot_rr_new@1</text>
<text xml:space="preserve" text-anchor="middle" x="1017.15" y="-472.61" font-family="Times,serif" font-size="14.00">compute/dot</text>
<text xml:space="preserve" text-anchor="middle" x="1017.15" y="-456.11" font-family="Times,serif" font-size="14.00">@dev 1</text>
</g>
<!-- T15&#45;&gt;T19 -->
<g id="edge25" class="edge">
<title>T15&#45;&gt;T19</title>
<path fill="none" stroke="black" d="M849.83,-607.1C859.77,-601.08 869.21,-593.97 876.93,-585.66 891.17,-570.32 880.87,-557.65 894.93,-542.16 907.52,-528.29 923.8,-516.86 940.32,-507.67"/>
<polygon fill="black" stroke="black" points="941.51,-511 948.72,-503.23 938.24,-504.82 941.51,-511"/>
<text xml:space="preserve" text-anchor="middle" x="905.06" y="-545.36" font-family="Times,serif" font-size="14.00">p2p</text>
</g>
<!-- T24 -->
<g id="node25" class="node">
<title>T24</title>
<ellipse fill="none" stroke="black" cx="1540.67" cy="-395.66" rx="98.29" ry="40.66"/>
<text xml:space="preserve" text-anchor="middle" x="1540.67" y="-407.11" font-family="Times,serif" font-size="14.00">24: axpy_p_update@1</text>
<text xml:space="preserve" text-anchor="middle" x="1540.67" y="-390.61" font-family="Times,serif" font-size="14.00">compute/axpy</text>
<text xml:space="preserve" text-anchor="middle" x="1540.67" y="-374.11" font-family="Times,serif" font-size="14.00">@dev 1</text>
</g>
<!-- T15&#45;&gt;T24 -->
<g id="edge26" class="edge">
<title>T15&#45;&gt;T24</title>
<path fill="none" stroke="black" d="M867.68,-618.19C993.96,-592.94 1232.45,-539.21 1424.38,-460.66 1441.55,-453.63 1459.36,-444.57 1475.7,-435.46"/>
<polygon fill="black" stroke="black" points="1477.38,-438.53 1484.34,-430.54 1473.92,-432.44 1477.38,-438.53"/>
<text xml:space="preserve" text-anchor="middle" x="1153.62" y="-561.88" font-family="Times,serif" font-size="14.00">p2p</text>
</g>
<!-- T20 -->
<g id="node21" class="node">
<title>T20</title>
<ellipse fill="none" stroke="black" cx="1017.15" cy="-654.66" rx="83.97" ry="40.66"/>
<text xml:space="preserve" text-anchor="middle" x="1017.15" y="-666.11" font-family="Times,serif" font-size="14.00">20: dot_rr_new@0</text>
<text xml:space="preserve" text-anchor="middle" x="1017.15" y="-649.61" font-family="Times,serif" font-size="14.00">compute/dot</text>
<text xml:space="preserve" text-anchor="middle" x="1017.15" y="-633.11" font-family="Times,serif" font-size="14.00">@dev 0</text>
</g>
<!-- T16&#45;&gt;T20 -->
<g id="edge27" class="edge">
<title>T16&#45;&gt;T20</title>
<path fill="none" stroke="black" d="M855.13,-708.45C881.15,-699.75 910.36,-690 936.69,-681.2"/>
<polygon fill="black" stroke="black" points="937.58,-684.59 945.96,-678.11 935.36,-677.95 937.58,-684.59"/>
<text xml:space="preserve" text-anchor="middle" x="905.06" y="-697.36" font-family="Times,serif" font-size="14.00">p2p</text>
</g>
<!-- T25 -->
<g id="node26" class="node">
<title>T25</title>
<ellipse fill="none" stroke="black" cx="1540.67" cy="-517.66" rx="98.29" ry="40.66"/>
<text xml:space="preserve" text-anchor="middle" x="1540.67" y="-529.11" font-family="Times,serif" font-size="14.00">25: axpy_p_update@0</text>
<text xml:space="preserve" text-anchor="middle" x="1540.67" y="-512.61" font-family="Times,serif" font-size="14.00">compute/axpy</text>
<text xml:space="preserve" text-anchor="middle" x="1540.67" y="-496.11" font-family="Times,serif" font-size="14.00">@dev 0</text>
</g>
<!-- T16&#45;&gt;T25 -->
<g id="edge28" class="edge">
<title>T16&#45;&gt;T25</title>
<path fill="none" stroke="black" d="M875.6,-731.51C940.03,-728.49 1026.47,-721.35 1101.12,-704.66 1250.38,-671.28 1286.31,-652.45 1424.38,-586.66 1441.99,-578.27 1460.39,-568 1477.18,-557.98"/>
<polygon fill="black" stroke="black" points="1478.83,-561.07 1485.58,-552.9 1475.21,-555.08 1478.83,-561.07"/>
<text xml:space="preserve" text-anchor="middle" x="1153.62" y="-703.32" font-family="Times,serif" font-size="14.00">p2p</text>
</g>
<!-- T21 -->
<g id="node22" class="node">
<title>T21</title>
<ellipse fill="none" stroke="black" cx="1286.38" cy="-352.66" rx="80.26" ry="40.66"/>
<text xml:space="preserve" text-anchor="middle" x="1286.38" y="-364.11" font-family="Times,serif" font-size="14.00">21: compute_beta</text>
<text xml:space="preserve" text-anchor="middle" x="1286.38" y="-347.61" font-family="Times,serif" font-size="14.00">compute/scalar</text>
<text xml:space="preserve" text-anchor="middle" x="1286.38" y="-331.11" font-family="Times,serif" font-size="14.00">@dev 0</text>
</g>
<!-- T17&#45;&gt;T21 -->
<g id="edge29" class="edge">
<title>T17&#45;&gt;T21</title>
<path fill="none" stroke="black" d="M1099.78,-335.3C1130.13,-338.13 1164.71,-341.37 1195.74,-344.27"/>
<polygon fill="black" stroke="black" points="1195.2,-347.74 1205.49,-345.18 1195.86,-340.77 1195.2,-347.74"/>
<text xml:space="preserve" text-anchor="middle" x="1153.62" y="-346.33" font-family="Times,serif" font-size="14.00">allreduce 4B</text>
</g>
<!-- T18&#45;&gt;T21 -->
<g id="edge30" class="edge">
<title>T18&#45;&gt;T21</title>
<path fill="none" stroke="black" d="M1075.81,-246C1117.8,-267.37 1174.78,-296.37 1218.72,-318.74"/>
<polygon fill="black" stroke="black" points="1216.89,-321.73 1227.39,-323.15 1220.07,-315.49 1216.89,-321.73"/>
<text xml:space="preserve" text-anchor="middle" x="1153.62" y="-304.04" font-family="Times,serif" font-size="14.00">allreduce 4B</text>
</g>
<!-- T19&#45;&gt;T21 -->
<g id="edge31" class="edge">
<title>T19&#45;&gt;T21</title>
<path fill="none" stroke="black" d="M1078.45,-449.45C1119.41,-430.29 1173.68,-404.91 1216.36,-384.94"/>
<polygon fill="black" stroke="black" points="1217.72,-388.17 1225.3,-380.76 1214.76,-381.83 1217.72,-388.17"/>
<text xml:space="preserve" text-anchor="middle" x="1153.62" y="-433.23" font-family="Times,serif" font-size="14.00">allreduce 4B</text>
</g>
<!-- T20&#45;&gt;T21 -->
<g id="edge32" class="edge">
<title>T20&#45;&gt;T21</title>
<path fill="none" stroke="black" d="M1096.69,-641.09C1128.39,-632.19 1163.26,-617.56 1188.12,-593.66 1241.25,-542.56 1266.18,-458.53 1277.26,-404.41"/>
<polygon fill="black" stroke="black" points="1280.65,-405.3 1279.13,-394.82 1273.78,-403.96 1280.65,-405.3"/>
<text xml:space="preserve" text-anchor="middle" x="1153.62" y="-636.3" font-family="Times,serif" font-size="14.00">allreduce</text>
</g>
<!-- T21&#45;&gt;T22 -->
<g id="edge33" class="edge">
<title>T21&#45;&gt;T22</title>
<path fill="none" stroke="black" d="M1319.93,-315.48C1349.68,-282.9 1395.99,-235.6 1442.38,-201.66 1449.69,-196.31 1457.62,-191.17 1465.68,-186.33"/>
<polygon fill="black" stroke="black" points="1467.37,-189.4 1474.25,-181.35 1463.85,-183.35 1467.37,-189.4"/>
<text xml:space="preserve" text-anchor="middle" x="1404.51" y="-250.39" font-family="Times,serif" font-size="14.00">p2p 4B</text>
</g>
<!-- T21&#45;&gt;T23 -->
<g id="edge34" class="edge">
<title>T21&#45;&gt;T23</title>
<path fill="none" stroke="black" d="M1350.07,-327.56C1383.01,-314.38 1423.75,-298.06 1459.02,-283.94"/>
<polygon fill="black" stroke="black" points="1459.9,-287.36 1467.89,-280.4 1457.3,-280.86 1459.9,-287.36"/>
<text xml:space="preserve" text-anchor="middle" x="1404.51" y="-314.41" font-family="Times,serif" font-size="14.00">p2p 4B</text>
</g>
<!-- T21&#45;&gt;T24 -->
<g id="edge35" class="edge">
<title>T21&#45;&gt;T24</title>
<path fill="none" stroke="black" d="M1362.73,-365.5C1386.38,-369.53 1412.9,-374.05 1438.05,-378.34"/>
<polygon fill="black" stroke="black" points="1437.18,-381.74 1447.63,-379.97 1438.36,-374.84 1437.18,-381.74"/>
<text xml:space="preserve" text-anchor="middle" x="1404.51" y="-378.65" font-family="Times,serif" font-size="14.00">p2p 4B</text>
</g>
<!-- T21&#45;&gt;T25 -->
<g id="edge36" class="edge">
<title>T21&#45;&gt;T25</title>
<path fill="none" stroke="black" d="M1336.62,-384.86C1376.88,-411.2 1434.05,-448.58 1477.47,-476.98"/>
<polygon fill="black" stroke="black" points="1475.52,-479.89 1485.81,-482.43 1479.35,-474.03 1475.52,-479.89"/>
<text xml:space="preserve" text-anchor="middle" x="1404.51" y="-443.31" font-family="Times,serif" font-size="14.00">p2p</text>
</g>
</g>
</svg>
