<?xml version="1.0" encoding="UTF-8" standalone="no"?>
<!DOCTYPE svg PUBLIC "-//W3C//DTD SVG 1.1//EN"
 "http://www.w3.org/Graphics/SVG/1.1/DTD/svg11.dtd">
<!-- Generated by graphviz version 14.1.3 (20260303.0454)
 -->
<!-- Title: taskflow Pages: 1 -->
<svg width="1634pt" height="800pt"
 viewBox="0.00 0.00 1634.00 800.00" xmlns="http://www.w3.org/2000/svg" xmlns:xlink="http://www.w3.org/1999/xlink">
<g id="graph0" class="graph" transform="scale(1 1) rotate(0) translate(4 796.32)">
<title>taskflow</title>
<polygon fill="white" stroke="none" points="-4,4 -4,-796.32 1629.66,-796.32 1629.66,4 -4,4"/>
<!-- T0 -->
<g id="node1" class="node">
<title>T0</title>
<ellipse fill="none" stroke="black" cx="72.83" cy="-74.66" rx="72.83" ry="40.66"/>
<text xml:space="preserve" text-anchor="middle" x="72.83" y="-86.11" font-family="Times,serif" font-size="14.00">0: spmv_Ap@0</text>
<text xml:space="preserve" text-anchor="middle" x="72.83" y="-69.61" font-family="Times,serif" font-size="14.00">compute/spmv</text>
<text xml:space="preserve" text-anchor="middle" x="72.83" y="-53.11" font-family="Times,serif" font-size="14.00">@dev 0</text>
</g>
<!-- T4 -->
<g id="node5" class="node">
<title>T4</title>
<ellipse fill="none" stroke="black" cx="270.5" cy="-117.66" rx="68.59" ry="40.66"/>
<text xml:space="preserve" text-anchor="middle" x="270.5" y="-129.11" font-family="Times,serif" font-size="14.00">4: dot_pAp@0</text>
<text xml:space="preserve" text-anchor="middle" x="270.5" y="-112.61" font-family="Times,serif" font-size="14.00">compute/dot</text>
<text xml:space="preserve" text-anchor="middle" x="270.5" y="-96.11" font-family="Times,serif" font-size="14.00">@dev 0</text>
</g>
<!-- T0&#45;&gt;T4 -->
<g id="edge1" class="edge">
<title>T0&#45;&gt;T4</title>
<path fill="none" stroke="black" d="M141.17,-89.46C158.47,-93.26 177.19,-97.37 194.84,-101.25"/>
<polygon fill="black" stroke="black" points="193.67,-104.58 204.19,-103.31 195.17,-97.74 193.67,-104.58"/>
<text xml:space="preserve" text-anchor="middle" x="173.79" y="-101.93" font-family="Times,serif" font-size="14.00">p2p</text>
</g>
<!-- T13 -->
<g id="node14" class="node">
<title>T13</title>
<ellipse fill="none" stroke="black" cx="776.77" cy="-48.66" rx="96.7" ry="40.66"/>
<text xml:space="preserve" text-anchor="middle" x="776.77" y="-60.11" font-family="Times,serif" font-size="14.00">13: axpy_r_update@0</text>
<text xml:space="preserve" text-anchor="middle" x="776.77" y="-43.61" font-family="Times,serif" font-size="14.00">compute/axpy</text>
<text xml:space="preserve" text-anchor="middle" x="776.77" y="-27.11" font-family="Times,serif" font-size="14.00">@dev 0</text>
</g>
<!-- T0&#45;&gt;T13 -->
<g id="edge2" class="edge">
<title>T0&#45;&gt;T13</title>
<path fill="none" stroke="black" d="M145.62,-70.46C163.97,-69.46 183.67,-68.46 201.91,-67.66 364.55,-60.52 553.22,-54.76 668.52,-51.52"/>
<polygon fill="black" stroke="black" points="668.38,-55.03 678.28,-51.25 668.18,-48.03 668.38,-55.03"/>
<text xml:space="preserve" text-anchor="middle" x="381.84" y="-64.59" font-family="Times,serif" font-size="14.00">p2p</text>
</g>
<!-- T1 -->
<g id="node2" class="node">
<title>T1</title>
<ellipse fill="none" stroke="black" cx="72.83" cy="-264.66" rx="72.83" ry="40.66"/>
<text xml:space="preserve" text-anchor="middle" x="72.83" y="-276.11" font-family="Times,serif" font-size="14.00">1: spmv_Ap@1</text>
<text xml:space="preserve" text-anchor="middle" x="72.83" y="-259.61" font-family="Times,serif" font-size="14.00">compute/spmv</text>
<text xml:space="preserve" text-anchor="middle" x="72.83" y="-243.11" font-family="Times,serif" font-size="14.00">@dev 1</text>
</g>
<!-- T5 -->
<g id="node6" class="node">
<title>T5</title>
<ellipse fill="none" stroke="black" cx="270.5" cy="-315.66" rx="68.59" ry="40.66"/>
<text xml:space="preserve" text-anchor="middle" x="270.5" y="-327.11" font-family="Times,serif" font-size="14.00">5: dot_pAp@1</text>
<text xml:space="preserve" text-anchor="middle" x="270.5" y="-310.61" font-family="Times,serif" font-size="14.00">compute/dot</text>
<text xml:space="preserve" text-anchor="middle" x="270.5" y="-294.11" font-family="Times,serif" font-size="14.00">@dev 1</text>
</g>
<!-- T1&#45;&gt;T5 -->
<g id="edge3" class="edge">
<title>T1&#45;&gt;T5</title>
<path fill="none" stroke="black" d="M139.26,-281.71C157.47,-286.46 177.37,-291.64 196.01,-296.5"/>
<polygon fill="black" stroke="black" points="195.1,-299.88 205.66,-299.02 196.86,-293.11 195.1,-299.88"/>
<text xml:space="preserve" text-anchor="middle" x="173.79" y="-296.41" font-family="Times,serif" font-size="14.00">p2p</text>
</g>
<!-- T15 -->
<g id="node16" class="node">
<title>T15</title>
<ellipse fill="none" stroke="black" cx="776.77" cy="-246.66" rx="96.7" ry="40.66"/>
<text xml:space="preserve" text-anchor="middle" x="776.77" y="-258.11" font-family="Times,serif" font-size="14.00">15: axpy_r_update@1</text>
<text xml:space="preserve" text-anchor="middle" x="776.77" y="-241.61" font-family="Times,serif" font-size="14.00">compute/axpy</text>
<text xml:space="preserve" text-anchor="middle" x="776.77" y="-225.11" font-family="Times,serif" font-size="14.00">@dev 1</text>
</g>
<!-- T1&#45;&gt;T15 -->
<g id="edge4" class="edge">
<title>T1&#45;&gt;T15</title>
<path fill="none" stroke="black" d="M145.98,-262.81C270.01,-259.63 524.22,-253.11 668.87,-249.4"/>
<polygon fill="black" stroke="black" points="668.53,-252.91 678.44,-249.15 668.35,-245.91 668.53,-252.91"/>
<text xml:space="preserve" text-anchor="middle" x="381.84" y="-260.51" font-family="Times,serif" font-size="14.00">p2p</text>
</g>
<!-- T2 -->
<g id="node3" class="node">
<title>T2</title>
<ellipse fill="none" stroke="black" cx="72.83" cy="-470.66" rx="72.83" ry="40.66"/>
<text xml:space="preserve" text-anchor="middle" x="72.83" y="-482.11" font-family="Times,serif" font-size="14.00">2: spmv_Ap@2</text>
<text xml:space="preserve" text-anchor="middle" x="72.83" y="-465.61" font-family="Times,serif" font-size="14.00">compute/spmv</text>
<text xml:space="preserve" text-anchor="middle" x="72.83" y="-449.11" font-family="Times,serif" font-size="14.00">@dev 2</text>
</g>
<!-- T6 -->
<g id="node7" class="node">
<title>T6</title>
<ellipse fill="none" stroke="black" cx="270.5" cy="-513.66" rx="68.59" ry="40.66"/>
<text xml:space="preserve" text-anchor="middle" x="270.5" y="-525.11" font-family="Times,serif" font-size="14.00">6: dot_pAp@2</text>
<text xml:space="preserve" text-anchor="middle" x="270.5" y="-508.61" font-family="Times,serif" font-size="14.00">compute/dot</text>
<text xml:space="preserve" text-anchor="middle" x="270.5" y="-492.11" font-family="Times,serif" font-size="14.00">@dev 2</text>
</g>
<!-- T2&#45;&gt;T6 -->
<g id="edge5" class="edge">
<title>T2&#45;&gt;T6</title>
<path fill="none" stroke="black" d="M141.17,-485.46C158.47,-489.26 177.19,-493.37 194.84,-497.25"/>
<polygon fill="black" stroke="black" points="193.67,-500.58 204.19,-499.31 195.17,-493.74 193.67,-500.58"/>
<text xml:space="preserve" text-anchor="middle" x="173.79" y="-497.93" font-family="Times,serif" font-size="14.00">p2p</text>
</g>
<!-- T17 -->
<g id="node18" class="node">
<title>T17</title>
<ellipse fill="none" stroke="black" cx="776.77" cy="-444.66" rx="96.7" ry="40.66"/>
<text xml:space="preserve" text-anchor="middle" x="776.77" y="-456.11" font-family="Times,serif" font-size="14.00">17: axpy_r_update@2</text>
<text xml:space="preserve" text-anchor="middle" x="776.77" y="-439.61" font-family="Times,serif" font-size="14.00">compute/axpy</text>
<text xml:space="preserve" text-anchor="middle" x="776.77" y="-423.11" font-family="Times,serif" font-size="14.00">@dev 2</text>
</g>
<!-- T2&#45;&gt;T17 -->
<g id="edge6" class="edge">
<title>T2&#45;&gt;T17</title>
<path fill="none" stroke="black" d="M145.62,-466.46C163.97,-465.46 183.67,-464.46 201.91,-463.66 364.55,-456.52 553.22,-450.76 668.52,-447.52"/>
<polygon fill="black" stroke="black" points="668.38,-451.03 678.28,-447.25 668.18,-444.03 668.38,-451.03"/>
<text xml:space="preserve" text-anchor="middle" x="381.84" y="-460.59" font-family="Times,serif" font-size="14.00">p2p</text>
</g>
<!-- T3 -->
<g id="node4" class="node">
<title>T3</title>
<ellipse fill="none" stroke="black" cx="72.83" cy="-677.66" rx="72.83" ry="40.66"/>
<text xml:space="preserve" text-anchor="middle" x="72.83" y="-689.11" font-family="Times,serif" font-size="14.00">3: spmv_Ap@3</text>
<text xml:space="preserve" text-anchor="middle" x="72.83" y="-672.61" font-family="Times,serif" font-size="14.00">compute/spmv</text>
<text xml:space="preserve" text-anchor="middle" x="72.83" y="-656.11" font-family="Times,serif" font-size="14.00">@dev 3</text>
</g>
<!-- T7 -->
<g id="node8" class="node">
<title>T7</title>
<ellipse fill="none" stroke="black" cx="270.5" cy="-721.66" rx="68.59" ry="40.66"/>
<text xml:space="preserve" text-anchor="middle" x="270.5" y="-733.11" font-family="Times,serif" font-size="14.00">7: dot_pAp@3</text>
<text xml:space="preserve" text-anchor="middle" x="270.5" y="-716.61" font-family="Times,serif" font-size="14.00">compute/dot</text>
<text xml:space="preserve" text-anchor="middle" x="270.5" y="-700.11" font-family="Times,serif" font-size="14.00">@dev 3</text>
</g>
<!-- T3&#45;&gt;T7 -->
<g id="edge7" class="edge">
<title>T3&#45;&gt;T7</title>
<path fill="none" stroke="black" d="M140.9,-692.74C158.22,-696.64 176.98,-700.85 194.67,-704.83"/>
<polygon fill="black" stroke="black" points="193.82,-708.23 204.35,-707.01 195.36,-701.4 193.82,-708.23"/>
<text xml:space="preserve" text-anchor="middle" x="173.79" y="-705.49" font-family="Times,serif" font-size="14.00">p2p</text>
</g>
<!-- T19 -->
<g id="node20" class="node">
<title>T19</title>
<ellipse fill="none" stroke="black" cx="776.77" cy="-652.66" rx="96.7" ry="40.66"/>
<text xml:space="preserve" text-anchor="middle" x="776.77" y="-664.11" font-family="Times,serif" font-size="14.00">19: axpy_r_update@3</text>
<text xml:space="preserve" text-anchor="middle" x="776.77" y="-647.61" font-family="Times,serif" font-size="14.00">compute/axpy</text>
<text xml:space="preserve" text-anchor="middle" x="776.77" y="-631.11" font-family="Times,serif" font-size="14.00">@dev 3</text>
</g>
<!-- T3&#45;&gt;T19 -->
<g id="edge8" class="edge">
<title>T3&#45;&gt;T19</title>
<path fill="none" stroke="black" d="M145.63,-674.12C163.98,-673.27 183.67,-672.39 201.91,-671.66 364.58,-665.16 553.24,-659.22 668.53,-655.77"/>
<polygon fill="black" stroke="black" points="668.4,-659.28 678.29,-655.48 668.19,-652.28 668.4,-659.28"/>
<text xml:space="preserve" text-anchor="middle" x="381.84" y="-668.97" font-family="Times,serif" font-size="14.00">p2p</text>
</g>
<!-- T8 -->
<g id="node9" class="node">
<title>T8</title>
<ellipse fill="none" stroke="black" cx="523.41" cy="-117.66" rx="94.05" ry="40.66"/>
<text xml:space="preserve" text-anchor="middle" x="523.41" y="-129.11" font-family="Times,serif" font-size="14.00">8: compute_alpha@0</text>
<text xml:space="preserve" text-anchor="middle" x="523.41" y="-112.61" font-family="Times,serif" font-size="14.00">compute/scalar</text>
<text xml:space="preserve" text-anchor="middle" x="523.41" y="-96.11" font-family="Times,serif" font-size="14.00">@dev 0</text>
</g>
<!-- T4&#45;&gt;T8 -->
<g id="edge9" class="edge">
<title>T4&#45;&gt;T8</title>
<path fill="none" stroke="black" d="M339.4,-117.66C363.53,-117.66 391.29,-117.66 417.77,-117.66"/>
<polygon fill="black" stroke="black" points="417.51,-121.16 427.51,-117.66 417.51,-114.16 417.51,-121.16"/>
<text xml:space="preserve" text-anchor="middle" x="381.84" y="-120.86" font-family="Times,serif" font-size="14.00">allreduce</text>
</g>
<!-- T9 -->
<g id="node10" class="node">
<title>T9</title>
<ellipse fill="none" stroke="black" cx="523.41" cy="-315.66" rx="94.05" ry="40.66"/>
<text xml:space="preserve" text-anchor="middle" x="523.41" y="-327.11" font-family="Times,serif" font-size="14.00">9: compute_alpha@1</text>
<text xml:space="preserve" text-anchor="middle" x="523.41" y="-310.61" font-family="Times,serif" font-size="14.00">compute/scalar</text>
<text xml:space="preserve" text-anchor="middle" x="523.41" y="-294.11" font-family="Times,serif" font-size="14.00">@dev 1</text>
</g>
<!-- T5&#45;&gt;T9 -->
<g id="edge10" class="edge">
<title>T5&#45;&gt;T9</title>
<path fill="none" stroke="black" d="M339.4,-315.66C363.53,-315.66 391.29,-315.66 417.77,-315.66"/>
<polygon fill="black" stroke="black" points="417.51,-319.16 427.51,-315.66 417.51,-312.16 417.51,-319.16"/>
<text xml:space="preserve" text-anchor="middle" x="381.84" y="-318.86" font-family="Times,serif" font-size="14.00">allreduce</text>
</g>
<!-- T10 -->
<g id="node11" class="node">
<title>T10</title>
<ellipse fill="none" stroke="black" cx="523.41" cy="-513.66" rx="98.82" ry="40.66"/>
<text xml:space="preserve" text-anchor="middle" x="523.41" y="-525.11" font-family="Times,serif" font-size="14.00">10: compute_alpha@2</text>
<text xml:space="preserve" text-anchor="middle" x="523.41" y="-508.61" font-family="Times,serif" font-size="14.00">compute/scalar</text>
<text xml:space="preserve" text-anchor="middle" x="523.41" y="-492.11" font-family="Times,serif" font-size="14.00">@dev 2</text>
</g>
<!-- T6&#45;&gt;T10 -->
<g id="edge11" class="edge">
<title>T6&#45;&gt;T10</title>
<path fill="none" stroke="black" d="M339.4,-513.66C362.06,-513.66 387.91,-513.66 412.9,-513.66"/>
<polygon fill="black" stroke="black" points="412.8,-517.16 422.8,-513.66 412.8,-510.16 412.8,-517.16"/>
<text xml:space="preserve" text-anchor="middle" x="381.84" y="-516.86" font-family="Times,serif" font-size="14.00">allreduce</text>
</g>
<!-- T11 -->
<g id="node12" class="node">
<title>T11</title>
<ellipse fill="none" stroke="black" cx="523.41" cy="-721.66" rx="98.82" ry="40.66"/>
<text xml:space="preserve" text-anchor="middle" x="523.41" y="-733.11" font-family="Times,serif" font-size="14.00">11: compute_alpha@3</text>
<text xml:space="preserve" text-anchor="middle" x="523.41" y="-716.61" font-family="Times,serif" font-size="14.00">compute/scalar</text>
<text xml:space="preserve" text-anchor="middle" x="523.41" y="-700.11" font-family="Times,serif" font-size="14.00">@dev 3</text>
</g>
<!-- T7&#45;&gt;T11 -->
<g id="edge12" class="edge">
<title>T7&#45;&gt;T11</title>
<path fill="none" stroke="black" d="M339.4,-721.66C362.06,-721.66 387.91,-721.66 412.9,-721.66"/>
<polygon fill="black" stroke="black" points="412.8,-725.16 422.8,-721.66 412.8,-718.16 412.8,-725.16"/>
<text xml:space="preserve" text-anchor="middle" x="381.84" y="-724.86" font-family="Times,serif" font-size="14.00">allreduce</text>
</g>
<!-- T12 -->
<g id="node13" class="node">
<title>T12</title>
<ellipse fill="none" stroke="black" cx="776.77" cy="-147.66" rx="98.29" ry="40.66"/>
<text xml:space="preserve" text-anchor="middle" x="776.77" y="-159.11" font-family="Times,serif" font-size="14.00">12: axpy_x_update@0</text>
<text xml:space="preserve" text-anchor="middle" x="776.77" y="-142.61" font-family="Times,serif" font-size="14.00">compute/axpy</text>
<text xml:space="preserve" text-anchor="middle" x="776.77" y="-126.11" font-family="Times,serif" font-size="14.00">@dev 0</text>
</g>
<!-- T8&#45;&gt;T12 -->
<g id="edge13" class="edge">
<title>T8&#45;&gt;T12</title>
<path fill="none" stroke="black" d="M614.45,-128.4C632.73,-130.59 652.11,-132.9 670.86,-135.14"/>
<polygon fill="black" stroke="black" points="670.27,-138.59 680.62,-136.3 671.1,-131.64 670.27,-138.59"/>
<text xml:space="preserve" text-anchor="middle" x="650.35" y="-136.76" font-family="Times,serif" font-size="14.00">p2p</text>
</g>
<!-- T8&#45;&gt;T13 -->
<g id="edge14" class="edge">
<title>T8&#45;&gt;T13</title>
<path fill="none" stroke="black" d="M603.6,-95.92C629.27,-88.87 657.96,-81 684.44,-73.73"/>
<polygon fill="black" stroke="black" points="685.07,-77.18 693.79,-71.16 683.22,-70.43 685.07,-77.18"/>
<text xml:space="preserve" text-anchor="middle" x="650.35" y="-88.43" font-family="Times,serif" font-size="14.00">p2p</text>
</g>
<!-- T14 -->
<g id="node15" class="node">
<title>T14</title>
<ellipse fill="none" stroke="black" cx="776.77" cy="-345.66" rx="98.29" ry="40.66"/>
<text xml:space="preserve" text-anchor="middle" x="776.77" y="-357.11" font-family="Times,serif" font-size="14.00">14: axpy_x_update@1</text>
<text xml:space="preserve" text-anchor="middle" x="776.77" y="-340.61" font-family="Times,serif" font-size="14.00">compute/axpy</text>
<text xml:space="preserve" text-anchor="middle" x="776.77" y="-324.11" font-family="Times,serif" font-size="14.00">@dev 1</text>
</g>
<!-- T9&#45;&gt;T14 -->
<g id="edge15" class="edge">
<title>T9&#45;&gt;T14</title>
<path fill="none" stroke="black" d="M614.45,-326.4C632.73,-328.59 652.11,-330.9 670.86,-333.14"/>
<polygon fill="black" stroke="black" points="670.27,-336.59 680.62,-334.3 671.1,-329.64 670.27,-336.59"/>
<text xml:space="preserve" text-anchor="middle" x="650.35" y="-334.76" font-family="Times,serif" font-size="14.00">p2p</text>
</g>
<!-- T9&#45;&gt;T15 -->
<g id="edge16" class="edge">
<title>T9&#45;&gt;T15</title>
<path fill="none" stroke="black" d="M603.6,-293.92C629.27,-286.87 657.96,-279 684.44,-271.73"/>
<polygon fill="black" stroke="black" points="685.07,-275.18 693.79,-269.16 683.22,-268.43 685.07,-275.18"/>
<text xml:space="preserve" text-anchor="middle" x="650.35" y="-286.43" font-family="Times,serif" font-size="14.00">p2p</text>
</g>
<!-- T16 -->
<g id="node17" class="node">
<title>T16</title>
<ellipse fill="none" stroke="black" cx="776.77" cy="-543.66" rx="98.29" ry="40.66"/>
<text xml:space="preserve" text-anchor="middle" x="776.77" y="-555.11" font-family="Times,serif" font-size="14.00">16: axpy_x_update@2</text>
<text xml:space="preserve" text-anchor="middle" x="776.77" y="-538.61" font-family="Times,serif" font-size="14.00">compute/axpy</text>
<text xml:space="preserve" text-anchor="middle" x="776.77" y="-522.11" font-family="Times,serif" font-size="14.00">@dev 2</text>
</g>
<!-- T10&#45;&gt;T16 -->
<g id="edge17" class="edge">
<title>T10&#45;&gt;T16</title>
<path fill="none" stroke="black" d="M618.72,-524.91C635.63,-526.93 653.36,-529.05 670.55,-531.1"/>
<polygon fill="black" stroke="black" points="669.92,-534.55 680.26,-532.26 670.75,-527.6 669.92,-534.55"/>
<text xml:space="preserve" text-anchor="middle" x="650.35" y="-532.76" font-family="Times,serif" font-size="14.00">p2p</text>
</g>
<!-- T10&#45;&gt;T17 -->
<g id="edge18" class="edge">
<title>T10&#45;&gt;T17</title>
<path fill="none" stroke="black" d="M606.37,-491.16C631.31,-484.31 658.88,-476.74 684.41,-469.74"/>
<polygon fill="black" stroke="black" points="685.03,-473.2 693.75,-467.17 683.18,-466.45 685.03,-473.2"/>
<text xml:space="preserve" text-anchor="middle" x="650.35" y="-484.43" font-family="Times,serif" font-size="14.00">p2p</text>
</g>
<!-- T18 -->
<g id="node19" class="node">
<title>T18</title>
<ellipse fill="none" stroke="black" cx="776.77" cy="-751.66" rx="98.29" ry="40.66"/>
<text xml:space="preserve" text-anchor="middle" x="776.77" y="-763.11" font-family="Times,serif" font-size="14.00">18: axpy_x_update@3</text>
<text xml:space="preserve" text-anchor="middle" x="776.77" y="-746.61" font-family="Times,serif" font-size="14.00">compute/axpy</text>
<text xml:space="preserve" text-anchor="middle" x="776.77" y="-730.11" font-family="Times,serif" font-size="14.00">@dev 3</text>
</g>
<!-- T11&#45;&gt;T18 -->
<g id="edge19" class="edge">
<title>T11&#45;&gt;T18</title>
<path fill="none" stroke="black" d="M618.72,-732.91C635.63,-734.93 653.36,-737.05 670.55,-739.1"/>
<polygon fill="black" stroke="black" points="669.92,-742.55 680.26,-740.26 670.75,-735.6 669.92,-742.55"/>
<text xml:space="preserve" text-anchor="middle" x="650.35" y="-740.76" font-family="Times,serif" font-size="14.00">p2p</text>
</g>
<!-- T11&#45;&gt;T19 -->
<g id="edge20" class="edge">
<title>T11&#45;&gt;T19</title>
<path fill="none" stroke="black" d="M606.37,-699.16C631.31,-692.31 658.88,-684.74 684.41,-677.74"/>
<polygon fill="black" stroke="black" points="685.03,-681.2 693.75,-675.17 683.18,-674.45 685.03,-681.2"/>
<text xml:space="preserve" text-anchor="middle" x="650.35" y="-692.43" font-family="Times,serif" font-size="14.00">p2p</text>
</g>
<!-- T20 -->
<g id="node21" class="node">
<title>T20</title>
<ellipse fill="none" stroke="black" cx="1015.27" cy="-83.66" rx="83.97" ry="40.66"/>
<text xml:space="preserve" text-anchor="middle" x="1015.27" y="-95.11" font-family="Times,serif" font-size="14.00">20: dot_rr_new@0</text>
<text xml:space="preserve" text-anchor="middle" x="1015.27" y="-78.61" font-family="Times,serif" font-size="14.00">compute/dot</text>
<text xml:space="preserve" text-anchor="middle" x="1015.27" y="-62.11" font-family="Times,serif" font-size="14.00">@dev 0</text>
</g>
<!-- T13&#45;&gt;T20 -->
<g id="edge21" class="edge">
<title>T13&#45;&gt;T20</title>
<path fill="none" stroke="black" d="M868.53,-62.09C886.46,-64.74 905.28,-67.53 923.22,-70.18"/>
<polygon fill="black" stroke="black" points="922.66,-73.64 933.07,-71.64 923.69,-66.71 922.66,-73.64"/>
<text xml:space="preserve" text-anchor="middle" x="903.18" y="-71.45" font-family="Times,serif" font-size="14.00">p2p</text>
</g>
<!-- T28 -->
<g id="node29" class="node">
<title>T28</title>
<ellipse fill="none" stroke="black" cx="1527.37" cy="-40.66" rx="98.29" ry="40.66"/>
<text xml:space="preserve" text-anchor="middle" x="1527.37" y="-52.11" font-family="Times,serif" font-size="14.00">28: axpy_p_update@0</text>
<text xml:space="preserve" text-anchor="middle" x="1527.37" y="-35.61" font-family="Times,serif" font-size="14.00">compute/axpy</text>
<text xml:space="preserve" text-anchor="middle" x="1527.37" y="-19.11" font-family="Times,serif" font-size="14.00">@dev 0</text>
</g>
<!-- T13&#45;&gt;T28 -->
<g id="edge22" class="edge">
<title>T13&#45;&gt;T28</title>
<path fill="none" stroke="black" d="M870.63,-38.12C890.61,-36.26 911.64,-34.62 931.3,-33.66 1127.31,-24.11 1176.65,-29.19 1372.83,-33.66 1387.64,-34 1403.25,-34.52 1418.62,-35.12"/>
<polygon fill="black" stroke="black" points="1418.1,-38.61 1428.24,-35.52 1418.39,-31.61 1418.1,-38.61"/>
<text xml:space="preserve" text-anchor="middle" x="1141.99" y="-31.78" font-family="Times,serif" font-size="14.00">p2p</text>
</g>
<!-- T21 -->
<g id="node22" class="node">
<title>T21</title>
<ellipse fill="none" stroke="black" cx="1015.27" cy="-290.66" rx="83.97" ry="40.66"/>
<text xml:space="preserve" text-anchor="middle" x="1015.27" y="-302.11" font-family="Times,serif" font-size="14.00">21: dot_rr_new@1</text>
<text xml:space="preserve" text-anchor="middle" x="1015.27" y="-285.61" font-family="Times,serif" font-size="14.00">compute/dot</text>
<text xml:space="preserve" text-anchor="middle" x="1015.27" y="-269.11" font-family="Times,serif" font-size="14.00">@dev 1</text>
</g>
<!-- T15&#45;&gt;T21 -->
<g id="edge23" class="edge">
<title>T15&#45;&gt;T21</title>
<path fill="none" stroke="black" d="M865.83,-263.04C885.16,-266.64 905.63,-270.45 925,-274.05"/>
<polygon fill="black" stroke="black" points="924.3,-277.48 934.77,-275.87 925.58,-270.6 924.3,-277.48"/>
<text xml:space="preserve" text-anchor="middle" x="903.18" y="-274.49" font-family="Times,serif" font-size="14.00">p2p</text>
</g>
<!-- T29 -->
<g id="node30" class="node">
<title>T29</title>
<ellipse fill="none" stroke="black" cx="1527.37" cy="-246.66" rx="98.29" ry="40.66"/>
<text xml:space="preserve" text-anchor="middle" x="1527.37" y="-258.11" font-family="Times,serif" font-size="14.00">29: axpy_p_update@1</text>
<text xml:space="preserve" text-anchor="middle" x="1527.37" y="-241.61" font-family="Times,serif" font-size="14.00">compute/axpy</text>
<text xml:space="preserve" text-anchor="middle" x="1527.37" y="-225.11" font-family="Times,serif" font-size="14.00">@dev 1</text>
</g>
<!-- T15&#45;&gt;T29 -->
<g id="edge24" class="edge">
<title>T15&#45;&gt;T29</title>
<path fill="none" stroke="black" d="M873.17,-242.35C892.41,-241.65 912.5,-241.03 931.3,-240.66 1127.5,-236.83 1176.64,-236.83 1372.83,-240.66 1387.39,-240.94 1402.72,-241.38 1417.83,-241.89"/>
<polygon fill="black" stroke="black" points="1417.7,-245.39 1427.82,-242.24 1417.95,-238.39 1417.7,-245.39"/>
<text xml:space="preserve" text-anchor="middle" x="1141.99" y="-241.08" font-family="Times,serif" font-size="14.00">p2p</text>
</g>
<!-- T22 -->
<g id="node23" class="node">
<title>T22</title>
<ellipse fill="none" stroke="black" cx="1015.27" cy="-509.66" rx="83.97" ry="40.66"/>
<text xml:space="preserve" text-anchor="middle" x="1015.27" y="-521.11" font-family="Times,serif" font-size="14.00">22: dot_rr_new@2</text>
<text xml:space="preserve" text-anchor="middle" x="1015.27" y="-504.61" font-family="Times,serif" font-size="14.00">compute/dot</text>
<text xml:space="preserve" text-anchor="middle" x="1015.27" y="-488.11" font-family="Times,serif" font-size="14.00">@dev 2</text>
</g>
<!-- T17&#45;&gt;T22 -->
<g id="edge25" class="edge">
<title>T17&#45;&gt;T22</title>
<path fill="none" stroke="black" d="M858.5,-466.85C881.83,-473.26 907.34,-480.27 930.84,-486.73"/>
<polygon fill="black" stroke="black" points="929.81,-490.07 940.38,-489.35 931.66,-483.32 929.81,-490.07"/>
<text xml:space="preserve" text-anchor="middle" x="903.18" y="-484.25" font-family="Times,serif" font-size="14.00">p2p</text>
</g>
<!-- T30 -->
<g id="node31" class="node">
<title>T30</title>
<ellipse fill="none" stroke="black" cx="1527.37" cy="-495.66" rx="98.29" ry="40.66"/>
<text xml:space="preserve" text-anchor="middle" x="1527.37" y="-507.11" font-family="Times,serif" font-size="14.00">30: axpy_p_update@2</text>
<text xml:space="preserve" text-anchor="middle" x="1527.37" y="-490.61" font-family="Times,serif" font-size="14.00">compute/axpy</text>
<text xml:space="preserve" text-anchor="middle" x="1527.37" y="-474.11" font-family="Times,serif" font-size="14.00">@dev 2</text>
</g>
<!-- T17&#45;&gt;T30 -->
<g id="edge26" class="edge">
<title>T17&#45;&gt;T30</title>
<path fill="none" stroke="black" d="M873.56,-441.06C991.53,-438.01 1197.81,-437.18 1372.83,-459.66 1392.77,-462.22 1413.89,-466.27 1433.89,-470.75"/>
<polygon fill="black" stroke="black" points="1432.86,-474.1 1443.39,-472.93 1434.43,-467.28 1432.86,-474.1"/>
<text xml:space="preserve" text-anchor="middle" x="1141.99" y="-446.16" font-family="Times,serif" font-size="14.00">p2p</text>
</g>
<!-- T23 -->
<g id="node24" class="node">
<title>T23</title>
<ellipse fill="none" stroke="black" cx="1015.27" cy="-675.66" rx="83.97" ry="40.66"/>
<text xml:space="preserve" text-anchor="middle" x="1015.27" y="-687.11" font-family="Times,serif" font-size="14.00">23: dot_rr_new@3</text>
<text xml:space="preserve" text-anchor="middle" x="1015.27" y="-670.61" font-family="Times,serif" font-size="14.00">compute/dot</text>
<text xml:space="preserve" text-anchor="middle" x="1015.27" y="-654.11" font-family="Times,serif" font-size="14.00">@dev 3</text>
</g>
<!-- T19&#45;&gt;T23 -->
<g id="edge27" class="edge">
<title>T19&#45;&gt;T23</title>
<path fill="none" stroke="black" d="M871.24,-661.75C887.71,-663.35 904.85,-665.02 921.31,-666.62"/>
<polygon fill="black" stroke="black" points="920.78,-670.08 931.07,-667.57 921.46,-663.12 920.78,-670.08"/>
<text xml:space="preserve" text-anchor="middle" x="903.18" y="-668.74" font-family="Times,serif" font-size="14.00">p2p</text>
</g>
<!-- T31 -->
<g id="node32" class="node">
<title>T31</title>
<ellipse fill="none" stroke="black" cx="1527.37" cy="-609.66" rx="98.29" ry="40.66"/>
<text xml:space="preserve" text-anchor="middle" x="1527.37" y="-621.11" font-family="Times,serif" font-size="14.00">31: axpy_p_update@3</text>
<text xml:space="preserve" text-anchor="middle" x="1527.37" y="-604.61" font-family="Times,serif" font-size="14.00">compute/axpy</text>
<text xml:space="preserve" text-anchor="middle" x="1527.37" y="-588.11" font-family="Times,serif" font-size="14.00">@dev 3</text>
</g>
<!-- T19&#45;&gt;T31 -->
<g id="edge28" class="edge">
<title>T19&#45;&gt;T31</title>
<path fill="none" stroke="black" d="M864.34,-635.14C886.11,-631.37 909.49,-627.86 931.3,-625.66 1100.4,-608.61 1297.8,-606.86 1417.36,-607.79"/>
<polygon fill="black" stroke="black" points="1417.14,-611.29 1427.17,-607.88 1417.2,-604.29 1417.14,-611.29"/>
<text xml:space="preserve" text-anchor="middle" x="1141.99" y="-615.82" font-family="Times,serif" font-size="14.00">p2p</text>
</g>
<!-- T24 -->
<g id="node25" class="node">
<title>T24</title>
<ellipse fill="none" stroke="black" cx="1278.79" cy="-83.66" rx="94.05" ry="40.66"/>
<text xml:space="preserve" text-anchor="middle" x="1278.79" y="-95.11" font-family="Times,serif" font-size="14.00">24: compute_beta@0</text>
<text xml:space="preserve" text-anchor="middle" x="1278.79" y="-78.61" font-family="Times,serif" font-size="14.00">compute/scalar</text>
<text xml:space="preserve" text-anchor="middle" x="1278.79" y="-62.11" font-family="Times,serif" font-size="14.00">@dev 0</text>
</g>
<!-- T20&#45;&gt;T24 -->
<g id="edge29" class="edge">
<title>T20&#45;&gt;T24</title>
<path fill="none" stroke="black" d="M1099.74,-83.66C1123.09,-83.66 1148.78,-83.66 1173.19,-83.66"/>
<polygon fill="black" stroke="black" points="1173.17,-87.16 1183.17,-83.66 1173.17,-80.16 1173.17,-87.16"/>
<text xml:space="preserve" text-anchor="middle" x="1141.99" y="-86.86" font-family="Times,serif" font-size="14.00">allreduce</text>
</g>
<!-- T25 -->
<g id="node26" class="node">
<title>T25</title>
<ellipse fill="none" stroke="black" cx="1278.79" cy="-290.66" rx="94.05" ry="40.66"/>
<text xml:space="preserve" text-anchor="middle" x="1278.79" y="-302.11" font-family="Times,serif" font-size="14.00">25: compute_beta@1</text>
<text xml:space="preserve" text-anchor="middle" x="1278.79" y="-285.61" font-family="Times,serif" font-size="14.00">compute/scalar</text>
<text xml:space="preserve" text-anchor="middle" x="1278.79" y="-269.11" font-family="Times,serif" font-size="14.00">@dev 1</text>
</g>
<!-- T21&#45;&gt;T25 -->
<g id="edge30" class="edge">
<title>T21&#45;&gt;T25</title>
<path fill="none" stroke="black" d="M1099.74,-290.66C1123.09,-290.66 1148.78,-290.66 1173.19,-290.66"/>
<polygon fill="black" stroke="black" points="1173.17,-294.16 1183.17,-290.66 1173.17,-287.16 1173.17,-294.16"/>
<text xml:space="preserve" text-anchor="middle" x="1141.99" y="-293.86" font-family="Times,serif" font-size="14.00">allreduce</text>
</g>
<!-- T26 -->
<g id="node27" class="node">
<title>T26</title>
<ellipse fill="none" stroke="black" cx="1278.79" cy="-509.66" rx="94.05" ry="40.66"/>
<text xml:space="preserve" text-anchor="middle" x="1278.79" y="-521.11" font-family="Times,serif" font-size="14.00">26: compute_beta@2</text>
<text xml:space="preserve" text-anchor="middle" x="1278.79" y="-504.61" font-family="Times,serif" font-size="14.00">compute/scalar</text>
<text xml:space="preserve" text-anchor="middle" x="1278.79" y="-488.11" font-family="Times,serif" font-size="14.00">@dev 2</text>
</g>
<!-- T22&#45;&gt;T26 -->
<g id="edge31" class="edge">
<title>T22&#45;&gt;T26</title>
<path fill="none" stroke="black" d="M1099.74,-509.66C1123.09,-509.66 1148.78,-509.66 1173.19,-509.66"/>
<polygon fill="black" stroke="black" points="1173.17,-513.16 1183.17,-509.66 1173.17,-506.16 1173.17,-513.16"/>
<text xml:space="preserve" text-anchor="middle" x="1141.99" y="-512.86" font-family="Times,serif" font-size="14.00">allreduce</text>
</g>
<!-- T27 -->
<g id="node28" class="node">
<title>T27</title>
<ellipse fill="none" stroke="black" cx="1278.79" cy="-675.66" rx="94.05" ry="40.66"/>
<text xml:space="preserve" text-anchor="middle" x="1278.79" y="-687.11" font-family="Times,serif" font-size="14.00">27: compute_beta@3</text>
<text xml:space="preserve" text-anchor="middle" x="1278.79" y="-670.61" font-family="Times,serif" font-size="14.00">compute/scalar</text>
<text xml:space="preserve" text-anchor="middle" x="1278.79" y="-654.11" font-family="Times,serif" font-size="14.00">@dev 3</text>
</g>
<!-- T23&#45;&gt;T27 -->
<g id="edge32" class="edge">
<title>T23&#45;&gt;T27</title>
<path fill="none" stroke="black" d="M1099.74,-675.66C1123.09,-675.66 1148.78,-675.66 1173.19,-675.66"/>
<polygon fill="black" stroke="black" points="1173.17,-679.16 1183.17,-675.66 1173.17,-672.16 1173.17,-679.16"/>
<text xml:space="preserve" text-anchor="middle" x="1141.99" y="-678.86" font-family="Times,serif" font-size="14.00">allreduce</text>
</g>
<!-- T24&#45;&gt;T28 -->
<g id="edge33" class="edge">
<title>T24&#45;&gt;T28</title>
<path fill="none" stroke="black" d="M1366.38,-68.56C1385.29,-65.26 1405.46,-61.74 1424.89,-58.36"/>
<polygon fill="black" stroke="black" points="1425.49,-61.8 1434.74,-56.64 1424.29,-54.91 1425.49,-61.8"/>
<text xml:space="preserve" text-anchor="middle" x="1400.96" y="-66.65" font-family="Times,serif" font-size="14.00">p2p</text>
</g>
<!-- T25&#45;&gt;T29 -->
<g id="edge34" class="edge">
<title>T25&#45;&gt;T29</title>
<path fill="none" stroke="black" d="M1366.38,-275.21C1385.49,-271.8 1405.9,-268.16 1425.52,-264.65"/>
<polygon fill="black" stroke="black" points="1425.93,-268.14 1435.16,-262.93 1424.7,-261.25 1425.93,-268.14"/>
<text xml:space="preserve" text-anchor="middle" x="1400.96" y="-273.18" font-family="Times,serif" font-size="14.00">p2p</text>
</g>
<!-- T26&#45;&gt;T30 -->
<g id="edge35" class="edge">
<title>T26&#45;&gt;T30</title>
<path fill="none" stroke="black" d="M1372.31,-504.41C1387.37,-503.55 1403.09,-502.66 1418.49,-501.78"/>
<polygon fill="black" stroke="black" points="1418.33,-505.3 1428.12,-501.24 1417.93,-498.31 1418.33,-505.3"/>
<text xml:space="preserve" text-anchor="middle" x="1400.96" y="-506.28" font-family="Times,serif" font-size="14.00">p2p</text>
</g>
<!-- T27&#45;&gt;T31 -->
<g id="edge36" class="edge">
<title>T27&#45;&gt;T31</title>
<path fill="none" stroke="black" d="M1359.51,-654.32C1383.06,-648.02 1409.04,-641.06 1433.35,-634.56"/>
<polygon fill="black" stroke="black" points="1434.17,-637.96 1442.93,-631.99 1432.36,-631.2 1434.17,-637.96"/>
<text xml:space="preserve" text-anchor="middle" x="1400.96" y="-647.84" font-family="Times,serif" font-size="14.00">p2p</text>
</g>
</g>
</svg>
